<svg xmlns="http://www.w3.org/2000/svg" width="150" height="236" viewBox="0 0 150 236"><g fill="none" stroke="#463320" stroke-width="1.15" stroke-linecap="round" stroke-linejoin="round"><path d="M6.3,9.0c1.7,-3.2 3.9,3.2 5.6,0.1c1.4,-3.2 3.3,3.2 4.8,0.8c1.9,2.5 4.5,-2.5 6.4,-0.4c1.6,-2.6 3.7,2.6 5.3,-0.8c1.6,-2.6 3.7,2.6 5.2,1.2c1.9,-3.0 4.5,3.0 6.4,-0.4c1.9,2.7 4.3,-2.7 6.2,-1.1M53.3,8.7c1.6,-3.9 3.8,3.9 5.5,0.7c1.9,3.9 4.4,-3.9 6.3,0.2c1.4,-3.1 3.2,3.1 4.6,0.2c1.3,-5.6 3.6,-7.5 2.3,-1.5c-1.2,2.4 3.3,3.3 6.6,0.0M82.8,9.3"/><path d="M6.2,20.1c1.6,-4.1 3.8,4.1 5.5,0.8c1.5,-3.3 3.6,3.3 5.1,0.7c1.6,-3.8 3.7,3.8 5.4,0.2c1.8,3.0 4.1,-3.0 5.9,-0.6c1.8,-3.6 4.1,3.6 5.9,1.1c1.9,3.8 4.5,-3.8 6.5,-0.2c1.7,-2.7 4.0,2.7 5.7,-0.4M51.5,20.8c1.1,-5.1 3.0,-6.8 1.9,-1.5c-1.2,2.1 2.7,4.8 5.4,0.0c1.8,3.9 4.2,-3.9 6.0,0.1c1.6,3.3 3.6,-3.3 5.2,-0.1c1.1,-5.3 3.1,-7.9 2.0,-1.5c-1.2,3.9 2.8,3.2 5.6,0.0c1.2,-8.8 2.8,-9.4 4.7,0.8M87.3,20.6c1.1,-5.6 2.9,-6.9 1.8,-1.5c-1.2,3.4 2.6,3.5 5.3,0.0c1.2,-7.0 3.2,-8.5 2.1,-1.5c-1.2,2.9 2.9,4.5 5.9,0.0c1.3,-7.9 3.2,-8.2 5.4,-0.6c1.7,-3.7 4.0,3.7 5.7,-0.4c1.9,-2.9 4.4,2.9 6.4,1.2c1.4,-3.9 3.2,3.9 4.6,-0.0M129.4,19.6c1.3,-4.2 3.0,4.2 4.3,1.0c1.9,3.1 4.4,-3.1 6.3,0.2"/><path d="M6.3,31.3c1.2,-6.4 3.3,-6.5 2.1,-1.5c-1.2,4.0 3.0,3.7 6.0,0.0c0.8,-5.6 2.3,-7.6 1.5,-1.5c-1.2,3.9 2.1,4.5 4.2,0.0c1.5,-9.6 3.5,-8.2 5.8,-1.0c1.6,-4.3 3.8,4.3 5.5,0.3c2.0,2.7 4.6,-2.7 6.5,0.2c1.3,3.1 3.0,-3.1 4.2,-0.9M43.4,30.6c1.3,-3.1 3.0,3.1 4.2,-0.3c1.7,-4.1 4.0,4.1 5.7,-0.4c1.8,-2.9 4.1,2.9 5.9,0.1M66.9,31.3c1.1,-6.6 3.1,-7.6 2.0,-1.5c-1.2,3.2 2.8,3.2 5.7,0.0c1.4,3.9 3.3,-3.9 4.8,1.1c1.6,-2.5 3.7,2.5 5.2,0.4c1.5,2.8 3.5,-2.8 5.1,0.8c1.3,3.8 3.0,-3.8 4.2,-0.1"/><path d="M9.3,42.5c1.4,-3.3 3.4,3.3 4.8,0.9c1.7,4.4 4.0,-4.4 5.7,1.0c1.6,-10.3 4.0,-8.0 6.6,0.2c1.3,-2.5 3.0,2.5 4.3,0.9c1.3,-3.7 3.0,3.7 4.2,0.3c2.0,3.4 4.7,-3.4 6.7,0.5c1.4,-9.6 3.4,-10.3 5.7,-0.5M55.5,42.8c0.9,-7.2 2.4,-5.2 1.6,-1.5c-1.2,2.5 2.2,4.6 4.4,0.0c1.9,2.6 4.4,-2.6 6.2,0.9c1.6,-9.1 3.8,-10.6 6.3,0.4c2.0,-3.5 4.6,3.5 6.6,1.0c1.2,-8.7 2.8,-9.4 4.7,-0.1M89.2,42.9c1.3,4.0 3.0,-4.0 4.3,-1.1c1.6,-2.9 3.8,2.9 5.4,1.1c1.7,-4.4 3.9,4.4 5.6,0.5c1.2,-7.2 3.3,-5.5 2.1,-1.5c-1.2,3.9 3.0,4.9 6.0,0.0c0.9,-6.7 2.6,-5.9 1.6,-1.5c-1.2,3.3 2.3,3.5 4.7,0.0c1.1,-5.0 3.0,-7.0 1.9,-1.5c-1.2,2.4 2.7,3.2 5.4,0.0c1.4,-3.3 3.2,3.3 4.6,-0.8M133.1,41.9c1.5,4.1 3.5,-4.1 4.9,0.3"/><path d="M8.5,53.6c1.8,-3.1 4.3,3.1 6.2,-0.9c1.4,-7.7 3.4,-10.1 5.7,-0.1c1.6,2.6 3.8,-2.6 5.4,0.5c1.9,4.1 4.3,-4.1 6.2,0.5c1.5,-3.2 3.5,3.2 5.0,0.4c1.3,4.5 3.1,-4.5 4.4,0.0M45.9,53.5c1.6,-3.9 3.6,3.9 5.2,-0.1c2.0,-3.7 4.7,3.7 6.7,-0.8c1.6,-4.1 3.7,4.1 5.3,-0.3c1.7,2.7 3.9,-2.7 5.6,0.1c1.4,-9.0 3.3,-9.4 5.4,-0.9c1.4,-3.8 3.2,3.8 4.6,1.1M84.4,53.0c1.0,-7.9 2.8,-5.0 1.8,-1.5c-1.2,3.4 2.6,3.4 5.1,0.0c2.0,3.0 4.7,-3.0 6.7,-0.6c0.9,-5.6 2.5,-6.0 1.6,-1.5c-1.2,3.2 2.3,3.4 4.5,0.0c0.9,-6.5 2.4,-7.3 1.5,-1.5c-1.2,2.8 2.2,4.4 4.4,0.0M109.6,54.0c0.9,-5.3 2.4,-6.4 1.5,-1.5c-1.2,3.7 2.2,4.3 4.4,0.0c1.4,-10.5 3.4,-10.8 5.7,-0.4c1.4,-3.7 3.2,3.7 4.6,-1.0M131.5,53.6c1.5,-3.0 3.6,3.0 5.1,0.5c1.5,2.9 3.4,-2.9 4.9,0.9"/><path d="M7.6,64.8c1.8,-3.5 4.1,3.5 5.9,0.5c1.9,3.8 4.5,-3.8 6.5,-0.7c1.5,3.9 3.4,-3.9 4.9,-0.3c1.5,-10.4 3.7,-8.2 6.2,-1.0c1.0,-5.5 2.6,-6.0 1.7,-1.5c-1.2,2.5 2.4,3.6 4.8,0.0c1.3,-6.9 3.5,-7.7 2.2,-1.5c-1.2,3.2 3.2,4.0 6.3,0.0M49.9,65.0c1.4,-2.5 3.2,2.5 4.6,-0.4c2.0,4.2 4.6,-4.2 6.6,0.5c1.7,-3.2 4.0,3.2 5.7,0.1c1.8,-3.1 4.2,3.1 5.9,0.6c1.5,-10.5 3.5,-7.5 5.8,1.0M86.8,65.0c1.7,2.7 4.1,-2.7 5.8,0.3c1.1,-7.9 3.1,-8.3 1.9,-1.5c-1.2,2.8 2.8,3.5 5.6,0.0c1.8,3.0 4.1,-3.0 5.9,-0.3c1.4,-8.7 3.2,-9.7 5.4,-0.7c1.9,2.5 4.5,-2.5 6.4,-0.3c1.1,-5.9 3.0,-5.1 1.9,-1.5c-1.2,2.4 2.8,4.3 5.5,0.0M127.3,64.3c1.5,-3.2 3.5,3.2 5.0,-0.3c1.2,-8.8 2.9,-7.9 4.9,-0.5"/><path d="M7.2,75.9c1.3,-5.0 3.5,-7.4 2.2,-1.5c-1.2,2.3 3.2,3.3 6.3,0.0c1.5,-2.8 3.5,2.8 5.0,0.8c1.1,-6.5 3.0,-7.7 1.9,-1.5c-1.2,2.2 2.7,3.4 5.4,0.0c1.4,3.5 3.2,-3.5 4.5,1.1c2.0,-4.3 4.6,4.3 6.5,-0.2M42.3,75.4c1.4,3.1 3.4,-3.1 4.8,-0.4c2.0,-3.3 4.6,3.3 6.5,-0.8c1.4,-2.8 3.3,2.8 4.8,0.1c1.9,3.6 4.4,-3.6 6.3,0.1M70.9,76.0"/><path d="M9.3,87.0c1.7,3.9 3.9,-3.9 5.6,-0.2c1.9,-3.9 4.4,3.9 6.2,0.4c1.9,3.5 4.4,-3.5 6.2,-1.1c1.5,3.2 3.4,-3.2 4.9,0.1c1.3,-3.2 3.1,3.2 4.4,0.4c1.3,2.5 3.0,-2.5 4.3,0.6c1.1,-7.8 2.6,-7.9 4.3,0.2M50.8,87.3c1.9,-3.8 4.3,3.8 6.2,-1.0c0.9,-7.1 2.6,-7.9 1.6,-1.5c-1.2,2.6 2.3,3.5 4.7,0.0c1.1,-8.3 2.7,-9.0 4.5,-0.7M74.1,86.3c1.3,3.8 3.1,-3.8 4.5,-0.8c1.4,-10.8 3.3,-10.1 5.5,-0.8c1.7,-2.6 3.9,2.6 5.6,-0.7c1.5,3.2 3.6,-3.2 5.1,-0.5c1.8,3.2 4.2,-3.2 6.0,-1.0"/><path d="M8.6,98.2c2.0,-4.3 4.7,4.3 6.7,0.3c1.3,3.5 3.0,-3.5 4.2,1.0c1.6,-3.5 3.8,3.5 5.5,-0.6c1.8,3.2 4.2,-3.2 6.0,0.8c1.3,-10.9 3.2,-9.0 5.3,0.7c1.4,-4.0 3.3,4.0 4.7,0.8M45.8,97.4c2.0,-3.3 4.7,3.3 6.7,0.3c1.9,4.1 4.4,-4.1 6.3,-0.4c1.1,-5.7 2.9,-5.7 1.8,-1.5c-1.2,2.5 2.6,3.7 5.3,0.0c1.9,-2.6 4.5,2.6 6.4,-0.3c1.9,-3.8 4.4,3.8 6.2,-0.8c1.5,4.3 3.5,-4.3 5.0,-0.2c1.4,-10.8 3.3,-9.6 5.5,-0.5M94.0,98.3c1.7,-3.7 4.1,3.7 5.8,1.1c1.2,-8.9 3.0,-8.2 4.9,0.1c1.1,-5.4 2.9,-7.0 1.9,-1.5c-1.2,3.4 2.7,3.2 5.3,0.0M116.1,97.8c1.4,2.6 3.3,-2.6 4.8,0.9c1.7,3.1 4.0,-3.1 5.7,0.8c2.0,2.6 4.6,-2.6 6.5,-0.4c1.7,4.3 3.9,-4.3 5.5,-0.7"/><path d="M6.3,109.4c1.5,-3.5 3.5,3.5 5.0,-0.6c1.3,-2.8 3.1,2.8 4.4,-0.5c1.6,-3.6 3.8,3.6 5.5,-0.6c1.4,3.9 3.2,-3.9 4.6,-0.0c1.8,2.6 4.2,-2.6 5.9,0.7M38.1,108.8c2.0,-3.9 4.8,3.9 6.8,0.5c1.7,2.6 4.0,-2.6 5.7,-0.7c1.3,-10.6 3.0,-10.2 5.0,0.4c1.5,-8.0 3.5,-7.6 5.9,-0.3c1.6,-4.0 3.7,4.0 5.3,-0.9c0.9,-5.6 2.5,-5.1 1.6,-1.5c-1.2,2.9 2.2,3.1 4.5,0.0M79.0,109.3c1.4,4.3 3.2,-4.3 4.6,0.9c1.6,-7.2 3.8,-10.1 6.3,0.1c2.0,-4.5 4.7,4.5 6.7,0.4c1.4,4.5 3.2,-4.5 4.5,-1.0c1.5,-3.8 3.5,3.8 5.0,1.1c2.0,3.9 4.7,-3.9 6.7,0.7M118.5,109.1c1.5,-4.3 3.4,4.3 4.8,0.6c1.0,-6.5 2.7,-5.8 1.7,-1.5c-1.2,3.1 2.5,4.6 4.9,0.0c1.5,-3.1 3.4,3.1 4.9,0.1c1.3,-4.4 3.1,4.4 4.5,-0.5c1.5,-3.7 3.4,3.7 4.9,0.5"/><path d="M7.7,120.5c1.2,-10.6 2.8,-10.8 4.6,0.6c1.9,3.9 4.4,-3.9 6.3,0.9c1.6,-3.7 3.7,3.7 5.3,-1.0c1.7,4.4 3.9,-4.4 5.6,0.9c1.2,-7.0 3.0,-9.6 4.9,0.8c1.3,3.6 2.9,-3.6 4.2,-0.6c1.4,3.8 3.2,-3.8 4.6,1.0M51.4,119.8c0.9,-7.7 2.4,-8.0 1.6,-1.5c-1.2,3.7 2.2,4.5 4.4,0.0c1.1,-5.8 2.9,-6.5 1.8,-1.5c-1.2,3.6 2.6,3.9 5.3,0.0c1.9,3.4 4.4,-3.4 6.2,0.5c1.9,4.3 4.4,-4.3 6.3,0.9c1.2,-9.9 2.8,-9.3 4.7,-0.8"/><path d="M7.8,131.7c1.8,-3.4 4.3,3.4 6.1,0.7c1.4,-7.1 3.4,-10.4 5.7,0.3c1.4,-10.2 3.3,-8.7 5.5,0.1c2.0,3.5 4.6,-3.5 6.5,-1.2c1.4,-7.5 3.7,-6.9 2.4,-1.5c-1.2,3.7 3.4,4.4 6.8,0.0M46.5,131.9c1.6,-8.4 3.9,-8.7 6.5,-0.1c2.0,-2.7 4.8,2.7 6.8,0.3c1.4,4.4 3.3,-4.4 4.7,-0.9c2.0,3.0 4.7,-3.0 6.7,0.2c1.5,-2.7 3.5,2.7 5.0,0.8c1.5,-7.1 3.7,-8.0 6.1,0.8c1.8,3.1 4.2,-3.1 5.9,-0.9M94.9,131.8c1.1,-6.9 3.0,-5.3 1.9,-1.5c-1.2,3.3 2.7,3.6 5.5,0.0c1.5,-3.2 3.6,3.2 5.1,0.4c1.3,3.1 3.1,-3.1 4.5,0.2c1.5,-9.4 3.5,-8.5 5.9,-0.2c1.7,-4.0 4.1,4.0 5.8,-0.3c1.5,3.2 3.5,-3.2 5.0,-0.2c1.0,-6.7 2.6,-5.9 1.7,-1.5c-1.2,3.9 2.4,3.2 4.8,0.0M138.1,131.5"/><path d="M8.8,142.8c1.4,-3.1 3.2,3.1 4.5,0.4c1.8,-3.7 4.1,3.7 5.8,-0.4c1.3,-7.5 3.2,-7.9 5.4,0.9c1.8,-4.4 4.1,4.4 5.9,0.8M36.6,142.2c1.3,4.0 3.1,-4.0 4.5,0.6c1.3,-7.4 3.2,-7.4 5.4,0.5c0.9,-5.4 2.5,-7.3 1.6,-1.5c-1.2,3.1 2.3,3.9 4.5,0.0c1.8,2.8 4.3,-2.8 6.1,-0.3M62.7,142.8c2.0,3.1 4.7,-3.1 6.8,1.2c1.3,-4.0 3.1,4.0 4.5,0.1c2.0,-4.2 4.6,4.2 6.6,-0.5M85.2,143.3c1.6,-7.5 3.9,-7.9 6.5,-0.8c1.3,-6.2 3.7,-6.5 2.3,-1.5c-1.2,2.1 3.3,3.6 6.7,0.0c1.4,-3.1 3.3,3.1 4.8,-0.8M109.9,142.7c1.6,-7.2 3.8,-7.2 6.4,-0.6c1.5,-10.7 3.6,-7.0 6.1,0.2c2.0,3.1 4.7,-3.1 6.8,-0.7M135.3,142.1c1.3,-9.4 3.1,-10.0 5.2,-0.1"/><path d="M8.1,154.0c1.8,-3.6 4.1,3.6 5.9,-0.1c0.9,-6.8 2.4,-8.2 1.5,-1.5c-1.2,2.4 2.1,3.5 4.3,0.0c1.6,-3.6 3.7,3.6 5.3,-0.1M32.3,153.7c1.5,4.1 3.4,-4.1 4.9,0.4c1.7,-4.3 4.1,4.3 5.8,-1.2c1.7,-4.3 3.9,4.3 5.6,-0.1c1.7,-8.2 4.0,-9.8 6.6,0.3c2.0,-3.1 4.7,3.1 6.8,1.2c1.8,3.0 4.2,-3.0 6.0,-0.1c1.4,3.6 3.4,-3.6 4.8,0.8M78.9,153.9c1.3,3.7 3.0,-3.7 4.2,0.1c1.3,-3.6 3.0,3.6 4.3,-0.3c1.5,-7.4 3.6,-7.7 6.1,0.7c0.9,-7.2 2.6,-8.7 1.7,-1.5c-1.2,2.4 2.4,4.1 4.7,0.0c1.3,-7.4 3.5,-5.1 2.3,-1.5c-1.2,3.3 3.2,3.8 6.4,0.0M109.5,154.3c1.5,-2.5 3.4,2.5 4.9,-1.1c1.4,-2.8 3.2,2.8 4.6,-1.1c1.1,-9.8 2.6,-10.0 4.4,-0.1c1.5,-2.7 3.6,2.7 5.1,-0.9c2.0,4.4 4.6,-4.4 6.5,0.2c1.3,-2.9 2.9,2.9 4.2,-0.8"/><path d="M7.2,165.1c1.4,-3.2 3.4,3.2 4.8,-1.2c1.3,-7.8 3.4,-7.0 2.2,-1.5c-1.2,2.5 3.1,3.6 6.3,0.0c1.6,4.1 3.7,-4.1 5.3,-0.5c1.8,2.7 4.2,-2.7 5.9,1.1c1.9,2.8 4.5,-2.8 6.4,0.3c1.3,4.3 3.0,-4.3 4.3,-0.9M45.9,165.5c1.9,3.9 4.3,-3.9 6.2,-1.2c2.0,3.8 4.7,-3.8 6.8,0.1c1.7,-3.7 4.0,3.7 5.8,-0.6c1.9,-3.8 4.4,3.8 6.3,-0.1M77.2,165.4c1.6,-3.3 3.6,3.3 5.2,-1.0c1.9,-4.3 4.5,4.3 6.4,1.1c2.0,-2.9 4.7,2.9 6.7,-0.7M100.2,165.1c1.3,-7.9 3.2,-8.6 5.3,-0.8c1.5,-4.2 3.6,4.2 5.2,0.6c1.1,-5.2 3.1,-7.7 2.0,-1.5c-1.2,3.0 2.8,4.7 5.6,0.0M124.8,165.0c1.4,-10.1 3.4,-7.4 5.6,-0.2c2.0,-2.5 4.6,2.5 6.5,-1.0"/><path d="M9.0,176.2c1.9,-2.7 4.5,2.7 6.4,-0.5c1.9,-3.9 4.4,3.9 6.3,0.5c1.6,2.5 3.8,-2.5 5.4,-0.8c1.3,-4.2 3.1,4.2 4.5,-0.5c1.7,-4.4 4.0,4.4 5.8,-0.2c1.7,-7.3 4.1,-10.1 6.8,-0.4M50.7,176.4c1.3,-7.8 3.6,-8.6 2.3,-1.5c-1.2,2.4 3.3,4.9 6.6,0.0c1.8,-2.8 4.2,2.8 6.0,-0.6c1.7,-2.6 4.1,2.6 5.8,-0.6c1.3,4.1 3.0,-4.1 4.3,0.6c1.2,-8.8 2.9,-7.9 4.9,1.0c1.4,-3.3 3.3,3.3 4.8,0.3c2.0,2.9 4.6,-2.9 6.5,0.3"/><path d="M6.2,187.4c1.7,-10.4 4.1,-9.2 6.8,0.5c1.3,-6.1 3.5,-6.9 2.2,-1.5c-1.2,3.5 3.2,4.8 6.3,0.0c1.4,3.0 3.3,-3.0 4.7,0.7c1.4,-4.1 3.3,4.1 4.7,-0.6c1.2,-9.5 2.8,-9.6 4.7,0.1M41.2,186.7c1.7,-4.3 4.0,4.3 5.8,0.4c1.7,-3.0 4.0,3.0 5.7,-0.1c1.6,-2.9 3.8,2.9 5.4,-0.9c1.7,3.4 4.0,-3.4 5.6,-0.5c0.9,-5.9 2.5,-8.2 1.6,-1.5c-1.2,3.7 2.3,3.3 4.6,0.0M75.8,187.7c1.3,-6.0 3.6,-7.1 2.3,-1.5c-1.2,3.9 3.2,3.7 6.5,0.0c1.2,-8.4 2.8,-9.2 4.7,-0.1c2.0,-4.2 4.7,4.2 6.7,0.2c1.5,-8.9 3.5,-9.0 5.9,-0.3c1.4,4.2 3.3,-4.2 4.7,-0.3c1.1,-5.4 3.0,-5.4 1.9,-1.5c-1.2,3.1 2.7,3.2 5.4,0.0c1.6,-2.6 3.7,2.6 5.3,0.4M121.2,187.7c1.3,-10.6 3.2,-10.3 5.4,0.8c1.6,3.7 3.8,-3.7 5.4,-0.2c1.4,-9.7 3.3,-8.8 5.5,0.6"/><path d="M8.3,198.6c1.9,3.8 4.5,-3.8 6.4,-0.5c1.4,-3.8 3.2,3.8 4.6,1.0c1.3,2.9 3.1,-2.9 4.4,-0.9c1.3,4.3 3.0,-4.3 4.3,0.6M35.3,199.2c1.6,-3.6 3.8,3.6 5.4,0.1c1.7,-3.7 4.0,3.7 5.8,0.6c1.9,-4.0 4.4,4.0 6.4,-0.2c1.9,-3.0 4.5,3.0 6.5,0.9M67.5,197.8c1.6,-7.0 3.8,-7.6 6.4,-0.6c2.0,3.0 4.7,-3.0 6.7,0.8c1.1,-7.6 2.6,-8.5 4.3,-0.5M93.3,198.9c1.5,3.7 3.6,-3.7 5.1,-0.9c1.4,-3.7 3.2,3.7 4.5,-0.2c1.4,-6.2 3.7,-7.6 2.4,-1.5c-1.2,2.6 3.4,3.3 6.8,0.0c1.8,-2.8 4.2,2.8 6.0,-0.4c1.5,-7.0 3.6,-7.3 5.9,-0.4M126.7,198.9c1.6,3.8 3.6,-3.8 5.2,0.4c1.6,3.1 3.8,-3.1 5.4,0.3"/><path d="M8.8,209.7c1.4,-10.9 3.4,-10.9 5.6,-0.8c1.6,2.6 3.8,-2.6 5.4,0.1c1.6,3.1 3.8,-3.1 5.4,-1.2c1.5,-7.4 3.6,-9.6 6.0,-0.7M37.0,209.9c1.5,-7.2 3.5,-7.9 5.9,-0.8c1.4,-2.9 3.2,2.9 4.5,-0.4c1.5,2.9 3.5,-2.9 5.0,0.4c1.9,-4.0 4.5,4.0 6.5,-0.1c1.0,-6.4 2.8,-8.5 1.8,-1.5c-1.2,3.8 2.5,4.6 5.0,0.0c1.1,-6.4 3.1,-8.9 2.0,-1.5c-1.2,2.2 2.8,4.5 5.7,0.0M75.8,209.1c1.5,-10.8 3.5,-8.5 5.8,-0.6c1.7,-4.1 3.9,4.1 5.6,0.4c1.4,4.0 3.3,-4.0 4.8,-0.7c1.3,-6.3 3.6,-8.0 2.3,-1.5c-1.2,3.2 3.3,4.2 6.6,0.0c1.6,-3.1 3.7,3.1 5.3,-1.0c1.1,-6.5 3.1,-5.4 2.0,-1.5c-1.2,2.1 2.9,4.7 5.7,0.0M115.6,210.1c1.3,-9.6 3.1,-7.6 5.2,0.4c1.6,-3.3 3.7,3.3 5.3,-0.4c1.6,-4.3 3.7,4.3 5.2,-1.0c0.9,-5.8 2.4,-9.0 1.5,-1.5c-1.2,3.0 2.1,3.6 4.3,0.0"/><path d="M7.8,220.8c2.0,-3.4 4.7,3.4 6.8,-0.6c1.6,4.0 3.8,-4.0 5.4,0.3c1.5,3.2 3.4,-3.2 4.9,0.1c1.4,-3.2 3.2,3.2 4.6,-0.9c1.3,-7.1 3.1,-8.7 5.2,0.6M40.5,220.6c1.4,-9.6 3.4,-9.5 5.7,-0.5c1.4,-10.5 3.3,-10.5 5.5,0.2c1.4,2.8 3.2,-2.8 4.6,1.0c1.6,4.2 3.7,-4.2 5.2,-0.8c1.7,-3.3 3.9,3.3 5.5,-0.9M71.7,220.3c1.6,-3.6 3.8,3.6 5.4,0.4c1.4,-8.6 3.3,-10.7 5.5,0.5c1.5,-3.7 3.6,3.7 5.1,1.2c1.7,3.4 3.9,-3.4 5.6,0.9c0.9,-5.1 2.4,-8.5 1.5,-1.5c-1.2,2.8 2.2,3.5 4.4,0.0M103.8,221.5c1.3,4.3 3.0,-4.3 4.3,-0.5c2.0,2.7 4.6,-2.7 6.5,-1.1c1.3,-10.7 3.0,-7.0 5.0,-0.0c1.4,-10.6 3.4,-9.6 5.6,-0.6c1.0,-5.4 2.7,-5.5 1.7,-1.5c-1.2,3.7 2.4,4.6 4.8,0.0c1.3,4.4 3.1,-4.4 4.5,0.6c1.7,3.0 4.0,-3.0 5.7,0.8"/><path d="M7.9,232.0c1.4,2.6 3.4,-2.6 4.8,-1.1c0.9,-7.1 2.3,-6.9 1.5,-1.5c-1.2,2.4 2.1,4.2 4.3,0.0c0.9,-6.9 2.5,-7.6 1.6,-1.5c-1.2,3.5 2.3,4.7 4.5,0.0c1.2,-7.5 3.4,-6.5 2.2,-1.5c-1.2,3.4 3.1,4.1 6.2,0.0c1.5,-8.2 3.6,-11.0 6.0,-0.2M42.6,232.3c1.5,4.0 3.4,-4.0 4.9,-1.1c1.1,-10.0 2.6,-8.9 4.4,0.6c1.2,-7.6 3.4,-8.9 2.2,-1.5c-1.2,2.2 3.1,4.7 6.2,0.0c0.9,-5.1 2.4,-8.0 1.5,-1.5c-1.2,3.7 2.1,4.8 4.3,0.0c1.7,-2.7 4.1,2.7 5.8,0.2c1.5,-4.4 3.5,4.4 5.0,0.3c1.6,-9.8 3.8,-8.5 6.3,0.6M85.0,232.1c1.4,-6.1 3.7,-7.2 2.4,-1.5c-1.2,3.2 3.4,4.7 6.8,0.0c1.8,-4.2 4.1,4.2 5.9,-0.4c1.5,-2.6 3.6,2.6 5.1,-0.4M110.7,231.6c1.7,-4.5 4.0,4.5 5.6,-1.1c1.3,-2.6 3.1,2.6 4.5,0.5c1.2,-7.1 3.2,-8.5 2.1,-1.5c-1.2,2.9 2.9,4.0 5.9,0.0c1.7,-3.6 3.9,3.6 5.5,0.1M138.7,231.9"/></g></svg>