<svg xmlns="http://www.w3.org/2000/svg" width="150" height="236" viewBox="0 0 150 236"><g fill="none" stroke="#463320" stroke-width="1.15" stroke-linecap="round" stroke-linejoin="round"><path d="M9.6,9.0c1.4,-4.5 3.4,4.5 4.8,-0.8c1.3,3.9 3.1,-3.9 4.4,0.1c1.4,-3.9 3.3,3.9 4.8,0.3M32.0,9.3c0.9,-7.0 2.4,-5.1 1.6,-1.5c-1.2,3.7 2.2,4.2 4.4,0.0c1.4,3.3 3.2,-3.3 4.6,-0.1c1.8,-3.3 4.2,3.3 6.0,-0.4M54.5,8.4c0.9,-5.6 2.4,-6.8 1.5,-1.5c-1.2,3.7 2.2,3.5 4.4,0.0c1.7,-2.8 4.0,2.8 5.7,-0.5c1.7,-3.0 4.0,3.0 5.6,-0.8c1.5,-3.0 3.4,3.0 4.9,-0.8c1.0,-7.5 2.7,-8.1 1.7,-1.5c-1.2,3.3 2.5,3.2 4.9,0.0M88.7,9.2c1.2,-7.8 3.3,-8.3 2.1,-1.5c-1.2,3.1 3.0,3.5 6.0,0.0c1.5,-3.0 3.4,3.0 4.9,0.2c1.4,-3.2 3.2,3.2 4.6,0.5c1.3,-3.2 3.1,3.2 4.4,-0.1c1.5,-8.8 3.6,-8.2 6.1,-0.4c1.5,3.0 3.5,-3.0 4.9,0.3M125.6,8.6c1.3,-7.7 3.2,-9.5 5.3,0.1c1.5,-3.7 3.6,3.7 5.1,-0.8"/><path d="M7.7,20.1c2.0,4.0 4.7,-4.0 6.7,-0.1c1.6,4.4 3.7,-4.4 5.3,0.5c1.2,-7.4 3.3,-8.3 2.1,-1.5c-1.2,2.1 3.0,4.0 6.0,0.0M32.9,20.3c1.5,3.3 3.6,-3.3 5.2,-0.3c2.0,-3.2 4.6,3.2 6.5,0.5c1.2,-6.1 3.4,-8.4 2.1,-1.5c-1.2,3.0 3.1,3.2 6.1,0.0M56.4,20.9c1.9,-3.8 4.5,3.8 6.5,-0.7c1.7,-10.0 4.1,-7.3 6.8,0.2c1.4,3.0 3.3,-3.0 4.8,0.9M80.5,19.9c2.0,4.1 4.7,-4.1 6.7,0.4c1.4,-10.7 3.3,-9.5 5.5,-0.4c1.9,-3.5 4.5,3.5 6.5,1.1c1.9,-3.9 4.4,3.9 6.3,-0.2c2.0,-3.4 4.7,3.4 6.7,-0.4M118.0,19.7c1.8,3.0 4.2,-3.0 6.0,0.6c2.0,-3.0 4.6,3.0 6.6,-0.5c1.8,-3.4 4.2,3.4 6.0,-0.9c1.7,-2.9 4.1,2.9 5.8,-1.0"/><path d="M7.8,31.3c1.2,-7.8 3.3,-8.1 2.1,-1.5c-1.2,2.5 3.0,3.3 5.9,0.0c1.0,-7.9 2.7,-6.9 1.7,-1.5c-1.2,2.6 2.4,4.2 4.8,0.0c1.9,3.2 4.3,-3.2 6.2,-0.8c1.9,2.9 4.5,-2.9 6.4,0.0c1.3,-7.4 3.5,-5.4 2.2,-1.5c-1.2,2.5 3.2,3.3 6.4,0.0c1.6,3.6 3.7,-3.6 5.3,-0.5c2.0,-3.5 4.6,3.5 6.5,-0.6M56.2,31.4c1.9,-4.4 4.4,4.4 6.3,-0.4c1.7,-8.1 4.0,-9.2 6.7,0.1c1.1,-5.9 3.1,-6.0 2.0,-1.5c-1.2,3.6 2.8,3.8 5.6,0.0M81.1,32.0c1.3,3.6 3.1,-3.6 4.4,-0.8c0.9,-7.3 2.4,-8.3 1.5,-1.5c-1.2,2.3 2.2,4.4 4.4,0.0c1.4,-10.1 3.3,-9.0 5.4,0.6c1.4,-3.3 3.4,3.3 4.8,-1.1c1.4,-2.5 3.2,2.5 4.6,-0.6"/><path d="M6.1,42.5c1.3,-3.7 3.1,3.7 4.5,0.7c1.9,4.4 4.4,-4.4 6.3,0.1c1.6,-3.9 3.8,3.9 5.4,0.9M30.4,41.7c1.3,-3.5 3.1,3.5 4.4,1.0c1.4,-7.8 3.7,-5.2 2.4,-1.5c-1.2,2.5 3.4,3.7 6.8,0.0c1.3,-9.9 3.1,-7.7 5.1,0.6M55.2,41.7c1.7,4.5 4.0,-4.5 5.7,-0.4c1.7,-3.4 4.0,3.4 5.7,-0.1c1.6,-8.8 3.8,-9.0 6.3,0.3c2.0,3.2 4.7,-3.2 6.7,-0.2M84.2,42.0c0.9,-6.2 2.3,-8.3 1.5,-1.5c-1.2,3.8 2.1,4.2 4.3,0.0c1.3,-8.2 3.1,-8.1 5.2,0.4c1.2,-10.5 2.8,-8.3 4.7,0.3M105.4,42.7c1.5,-7.6 3.6,-9.9 6.1,-0.1c1.4,-4.0 3.2,4.0 4.6,-0.4c1.7,3.7 4.0,-3.7 5.7,0.3M126.3,42.2c1.7,-9.1 4.1,-10.9 6.8,0.8c2.0,-4.4 4.6,4.4 6.6,-0.9"/><path d="M7.7,53.6c1.0,-5.6 2.7,-5.4 1.7,-1.5c-1.2,2.1 2.5,4.3 5.0,0.0c1.2,-9.6 2.8,-8.2 4.7,0.0c1.3,-8.0 3.1,-8.6 5.2,-0.5c1.3,3.5 3.1,-3.5 4.5,-0.9c1.6,-10.4 3.7,-8.7 6.2,0.5M39.9,53.1c1.6,-4.5 3.6,4.5 5.2,1.1c1.1,-6.8 3.1,-6.8 2.0,-1.5c-1.2,2.4 2.8,4.7 5.6,0.0c1.4,-3.0 3.2,3.0 4.6,1.0c1.3,-6.5 3.7,-8.7 2.4,-1.5c-1.2,3.2 3.4,4.8 6.7,0.0c1.4,-8.4 3.4,-10.5 5.6,0.4c1.6,-3.5 3.7,3.5 5.3,1.2c2.0,-4.5 4.7,4.5 6.7,-0.6M86.6,53.6c1.4,-9.7 3.3,-9.3 5.5,-0.3c2.0,-3.2 4.6,3.2 6.6,-0.5c1.6,-3.5 3.8,3.5 5.4,1.0M111.4,53.3c1.3,-6.1 3.5,-8.7 2.2,-1.5c-1.2,2.3 3.2,4.3 6.4,0.0c1.7,-4.5 4.0,4.5 5.7,-0.2c1.5,3.5 3.5,-3.5 4.9,0.8c1.7,-3.5 4.0,3.5 5.7,0.9c1.7,3.1 4.0,-3.1 5.8,-0.4"/><path d="M7.4,64.8c2.0,-3.8 4.7,3.8 6.7,0.4c1.1,-5.1 3.1,-7.9 2.0,-1.5c-1.2,2.4 2.8,3.5 5.7,0.0c1.3,-3.7 3.1,3.7 4.4,-0.6c1.3,-3.4 3.1,3.4 4.4,-0.9c0.9,-6.9 2.4,-5.5 1.5,-1.5c-1.2,3.2 2.1,3.6 4.3,0.0c1.9,3.6 4.4,-3.6 6.3,-0.8c1.6,4.2 3.8,-4.2 5.4,0.4M49.0,64.1c1.6,-8.5 3.7,-10.8 6.2,-0.2c1.5,4.3 3.5,-4.3 5.0,-0.4c1.2,-5.3 3.2,-6.0 2.0,-1.5c-1.2,3.9 2.9,3.7 5.8,0.0c1.8,-3.8 4.2,3.8 6.0,-1.2c1.9,-3.4 4.5,3.4 6.5,-1.1M86.5,64.2c1.6,3.5 3.7,-3.5 5.3,-0.0c2.0,-4.1 4.7,4.1 6.8,0.1c1.5,-9.1 3.6,-10.7 6.0,0.8M111.1,64.8c2.0,-4.4 4.7,4.4 6.7,0.8c1.5,-3.0 3.5,3.0 5.0,-0.0c1.6,-3.2 3.7,3.2 5.3,1.2c1.1,-5.6 2.9,-8.0 1.9,-1.5c-1.2,3.2 2.7,3.2 5.3,0.0M140.7,64.4"/><path d="M8.4,75.9c0.9,-7.3 2.4,-7.1 1.5,-1.5c-1.2,3.7 2.2,4.9 4.4,0.0c1.8,3.1 4.3,-3.1 6.1,1.2c1.4,-8.3 3.4,-10.6 5.7,-0.3M33.5,75.7c1.4,-10.1 3.4,-7.9 5.7,-0.9c1.9,4.3 4.5,-4.3 6.4,0.1c1.6,-7.4 3.9,-9.2 6.4,-0.1c1.3,-10.5 3.2,-10.5 5.3,0.4c1.5,3.8 3.5,-3.8 4.9,-1.1M69.6,75.1c2.0,-2.9 4.7,2.9 6.8,0.1c2.0,3.4 4.6,-3.4 6.6,0.7c1.3,3.2 3.0,-3.2 4.2,0.2M93.8,75.3c0.8,-6.2 2.3,-6.9 1.5,-1.5c-1.2,2.1 2.1,3.6 4.2,0.0c1.8,4.3 4.2,-4.3 6.0,-0.7c1.9,3.4 4.4,-3.4 6.3,1.0c1.6,-3.3 3.7,3.3 5.3,0.6c1.3,-7.8 3.1,-10.2 5.1,-0.7c1.4,-3.0 3.3,3.0 4.7,-1.0c1.7,2.9 4.0,-2.9 5.7,0.1M139.6,76.0"/><path d="M9.9,87.0c2.0,-2.8 4.7,2.8 6.7,0.9c1.6,-3.5 3.7,3.5 5.3,-0.3c1.0,-5.5 2.7,-7.5 1.7,-1.5c-1.2,2.0 2.4,4.4 4.9,0.0c1.4,3.5 3.2,-3.5 4.6,-0.3M37.4,87.5c2.0,4.2 4.7,-4.2 6.7,0.1c1.2,-7.9 3.0,-10.4 5.0,-0.9c1.6,-4.0 3.8,4.0 5.4,-0.0c1.4,-3.8 3.2,3.8 4.6,-0.4c1.8,-4.1 4.1,4.1 5.8,-1.0M73.7,86.6c1.1,-9.1 2.7,-7.2 4.5,-0.9c1.9,3.5 4.5,-3.5 6.4,0.6c1.6,2.8 3.8,-2.8 5.4,-0.9c1.5,-9.0 3.5,-10.6 5.9,-0.4M102.1,87.1c1.9,2.9 4.3,-2.9 6.2,1.1c1.3,-6.2 3.5,-9.0 2.2,-1.5c-1.2,2.9 3.1,3.2 6.3,0.0c1.4,-7.7 3.3,-9.2 5.5,0.9c1.5,-7.3 3.6,-10.9 6.0,0.7c1.6,-10.9 3.9,-8.4 6.4,0.5c1.2,-8.3 2.8,-9.9 4.7,-0.6"/><path d="M7.5,98.2c1.1,-8.3 2.7,-8.7 4.4,-0.2c1.6,-3.6 3.8,3.6 5.4,0.7c1.8,-2.6 4.3,2.6 6.1,-0.9c1.9,2.7 4.5,-2.7 6.5,0.0c1.6,-8.9 3.9,-9.5 6.5,-0.3M42.7,98.5c1.5,3.3 3.5,-3.3 5.0,-0.0c2.0,-3.1 4.7,3.1 6.7,-0.4c1.8,2.5 4.2,-2.5 6.0,0.0c1.5,-9.7 3.6,-7.6 5.9,0.2M73.4,98.8c1.6,-3.3 3.7,3.3 5.3,0.1c1.8,-2.6 4.1,2.6 5.9,0.4c1.5,-3.5 3.4,3.5 4.9,-0.1c1.4,3.3 3.3,-3.3 4.7,-0.9c1.3,-3.8 2.9,3.8 4.2,0.6c1.9,3.4 4.5,-3.4 6.5,0.5c1.4,-3.6 3.3,3.6 4.8,-0.3M115.3,97.7c1.7,3.9 4.0,-3.9 5.7,-1.2c1.5,-3.6 3.6,3.6 5.1,0.5c1.3,-6.8 3.6,-6.0 2.3,-1.5c-1.2,2.5 3.3,4.2 6.5,0.0c1.4,-3.4 3.2,3.4 4.6,-0.6"/><path d="M7.3,109.4c1.5,3.3 3.6,-3.3 5.1,0.2c1.1,-7.4 2.7,-9.9 4.6,-0.4c1.9,4.4 4.5,-4.4 6.4,-0.9c1.7,3.2 4.1,-3.2 5.8,-0.7c1.7,-2.5 4.0,2.5 5.7,-0.2M39.6,109.0c1.5,-3.2 3.5,3.2 5.0,1.1c1.9,-2.5 4.4,2.5 6.3,1.2c1.3,-4.2 3.1,4.2 4.5,-1.0c1.7,2.8 4.1,-2.8 5.8,0.9c1.5,4.0 3.4,-4.0 4.9,0.3M73.4,108.7c1.1,-7.8 3.0,-8.9 1.9,-1.5c-1.2,2.8 2.7,3.0 5.5,0.0c0.9,-5.5 2.6,-5.9 1.7,-1.5c-1.2,2.6 2.4,4.1 4.7,0.0c2.0,4.1 4.8,-4.1 6.8,1.1c1.3,-2.9 3.0,2.9 4.3,-0.2c1.3,2.9 3.0,-2.9 4.3,-0.8c1.5,-3.1 3.4,3.1 4.9,-0.5c1.5,-2.7 3.5,2.7 5.0,-0.4M116.2,109.9c1.9,3.6 4.5,-3.6 6.5,0.6c1.3,3.7 3.0,-3.7 4.3,-0.9c1.2,-10.7 2.9,-8.5 4.8,0.4M136.5,109.5"/><path d="M8.9,120.5c1.6,4.2 3.8,-4.2 5.5,0.7c0.9,-5.8 2.6,-5.6 1.7,-1.5c-1.2,2.6 2.4,3.7 4.7,0.0c1.5,-10.5 3.7,-10.3 6.1,0.3c0.9,-5.4 2.6,-8.5 1.7,-1.5c-1.2,3.5 2.4,4.9 4.7,0.0c1.3,4.0 3.1,-4.0 4.4,0.7c1.7,2.7 4.0,-2.7 5.7,-0.0c1.8,2.8 4.3,-2.8 6.2,-0.8M53.0,121.3c1.5,-3.9 3.5,3.9 5.0,0.1c1.2,-7.9 3.2,-8.0 2.1,-1.5c-1.2,3.1 3.0,4.2 5.9,0.0c0.9,-6.9 2.6,-7.0 1.6,-1.5c-1.2,2.2 2.3,4.7 4.7,0.0c1.7,-2.6 3.9,2.6 5.5,0.3c1.3,-8.6 3.1,-10.0 5.2,0.8c1.7,3.6 3.9,-3.6 5.6,0.2M91.5,120.7c1.3,2.5 3.1,-2.5 4.4,0.7c1.4,4.3 3.2,-4.3 4.6,-0.2c2.0,-2.9 4.6,2.9 6.5,1.1c1.8,3.5 4.2,-3.5 6.0,0.7c1.9,-3.0 4.5,3.0 6.5,0.2c1.4,4.3 3.3,-4.3 4.7,0.9M132.5,121.2c2.0,3.3 4.7,-3.3 6.7,0.2"/><path d="M8.6,131.7c2.0,4.3 4.7,-4.3 6.8,-0.6c1.9,-4.1 4.5,4.1 6.4,-1.0c1.3,-6.7 3.4,-5.3 2.2,-1.5c-1.2,2.8 3.1,3.9 6.3,0.0c1.7,3.5 3.9,-3.5 5.5,1.1c1.7,-7.5 4.0,-9.2 6.7,0.4c1.6,4.4 3.6,-4.4 5.2,-0.6c1.9,3.2 4.5,-3.2 6.4,-0.6M59.4,131.9c1.1,-6.1 3.2,-8.9 2.0,-1.5c-1.2,2.5 2.9,3.1 5.7,0.0c1.7,-3.7 3.9,3.7 5.6,0.2c1.6,2.7 3.7,-2.7 5.3,-0.3M84.1,131.1c1.5,-4.5 3.5,4.5 4.9,-0.5c1.5,-7.6 3.7,-10.7 6.2,-0.9c1.1,-8.7 2.6,-10.1 4.3,0.2c1.8,-2.5 4.1,2.5 5.9,-0.8c1.9,4.4 4.4,-4.4 6.3,-0.2c0.9,-6.9 2.4,-8.1 1.5,-1.5c-1.2,3.2 2.1,3.5 4.3,0.0c1.3,3.5 3.0,-3.5 4.3,-1.1M127.2,131.5c1.9,4.0 4.3,-4.0 6.2,0.7c1.5,2.6 3.5,-2.6 5.0,0.3"/><path d="M9.3,142.8c1.3,3.9 3.0,-3.9 4.3,-0.8c1.3,-6.0 3.6,-6.9 2.3,-1.5c-1.2,3.0 3.3,4.6 6.5,0.0c1.9,3.6 4.5,-3.6 6.5,0.2c1.7,-2.9 4.0,2.9 5.8,0.2c1.9,3.3 4.5,-3.3 6.5,-0.7c1.9,-4.3 4.5,4.3 6.4,0.7M54.1,143.1c1.9,2.8 4.3,-2.8 6.2,1.2c1.5,3.3 3.6,-3.3 5.1,1.1c1.4,-7.8 3.4,-10.8 5.7,0.3M75.8,143.1c1.8,-2.7 4.3,2.7 6.1,0.7c1.4,3.8 3.2,-3.8 4.6,-0.9c1.6,-2.8 3.8,2.8 5.5,-0.8c1.8,3.9 4.1,-3.9 5.9,0.0"/><path d="M6.2,154.0c1.1,-7.3 2.6,-9.4 4.4,0.8c1.6,3.8 3.7,-3.8 5.3,0.2c2.0,-2.7 4.6,2.7 6.6,-0.8c1.4,-9.0 3.4,-8.6 5.7,0.2c1.6,-3.2 3.8,3.2 5.4,1.0c1.5,4.4 3.6,-4.4 5.1,-0.2c1.2,-7.4 2.8,-8.6 4.7,-0.6M50.5,154.4c1.5,-4.2 3.4,4.2 4.9,0.5c1.4,-3.8 3.2,3.8 4.6,0.9c1.7,3.4 3.9,-3.4 5.5,-0.4c1.9,-3.7 4.5,3.7 6.4,-0.9M80.7,154.6c1.1,-9.1 2.6,-9.2 4.3,0.3c1.6,4.1 3.8,-4.1 5.4,-0.4c1.3,3.3 3.0,-3.3 4.3,0.1c1.5,-3.7 3.4,3.7 4.9,-0.4M104.9,153.5M110.8,154.2"/><path d="M9.3,165.1c1.3,-5.0 3.5,-5.5 2.2,-1.5c-1.2,3.5 3.2,5.0 6.4,0.0c1.9,-4.1 4.4,4.1 6.2,-0.9c1.6,3.1 3.8,-3.1 5.4,-0.4c1.4,2.8 3.2,-2.8 4.6,0.0M38.1,165.4c1.2,-8.8 2.8,-8.7 4.6,-0.8c1.3,-7.9 3.6,-7.8 2.3,-1.5c-1.2,3.3 3.3,3.0 6.5,0.0c1.5,-9.8 3.5,-8.5 5.9,0.3c1.3,4.3 3.0,-4.3 4.3,0.5c1.7,-4.2 4.1,4.2 5.8,-1.0c1.6,3.2 3.7,-3.2 5.3,-1.0c1.0,-6.4 2.8,-6.4 1.8,-1.5c-1.2,2.4 2.6,3.5 5.1,0.0M83.1,164.5c1.8,3.1 4.2,-3.1 6.1,-0.6c1.3,2.9 3.1,-2.9 4.4,0.4c1.9,-4.3 4.4,4.3 6.4,0.0c1.3,-7.0 3.6,-6.8 2.3,-1.5c-1.2,3.2 3.3,4.2 6.5,0.0c1.1,-5.6 3.1,-8.8 2.0,-1.5c-1.2,3.4 2.8,4.5 5.6,0.0c1.5,3.2 3.5,-3.2 5.0,1.1M121.9,165.3c1.3,-5.3 3.7,-7.0 2.3,-1.5c-1.2,3.7 3.3,3.9 6.7,0.0c1.0,-7.0 2.8,-7.3 1.8,-1.5c-1.2,2.1 2.5,4.5 5.1,0.0c1.9,2.7 4.4,-2.7 6.3,0.8"/><path d="M7.2,176.2c1.8,-4.0 4.3,4.0 6.1,-0.1c0.9,-7.5 2.4,-7.3 1.5,-1.5c-1.2,3.8 2.2,3.4 4.4,0.0c1.2,-7.4 2.9,-9.9 4.9,0.9M27.6,175.6c1.5,2.8 3.6,-2.8 5.2,-0.7c1.6,2.9 3.8,-2.9 5.4,0.4c1.3,-4.3 3.1,4.3 4.4,0.0c1.6,-3.8 3.8,3.8 5.5,-0.3c1.6,4.1 3.7,-4.1 5.3,-1.1c1.5,3.7 3.6,-3.7 5.1,-0.8c1.0,-7.8 2.8,-7.7 1.8,-1.5c-1.2,3.3 2.5,4.1 5.1,0.0M72.1,176.2c1.3,-10.2 3.2,-8.0 5.3,-0.9c1.6,-9.9 3.8,-10.6 6.3,-0.5c1.7,3.6 4.0,-3.6 5.7,-0.9M98.0,176.7c1.3,-2.6 3.0,2.6 4.3,-1.1c1.9,3.6 4.4,-3.6 6.4,-1.0c1.4,-9.8 3.4,-7.0 5.6,0.0c1.3,-7.5 3.6,-6.8 2.3,-1.5c-1.2,3.2 3.3,4.6 6.5,0.0c1.0,-5.5 2.7,-7.1 1.7,-1.5c-1.2,3.7 2.5,4.6 5.0,0.0c2.0,-2.6 4.6,2.6 6.6,0.5M139.8,175.7"/><path d="M8.2,187.4c1.9,-2.9 4.4,2.9 6.3,0.4c1.5,3.1 3.5,-3.1 5.1,-0.5c1.7,-7.4 4.0,-10.2 6.6,0.4c1.3,2.7 3.0,-2.7 4.2,1.0c1.5,4.2 3.4,-4.2 4.9,1.1c1.3,-5.1 3.6,-8.7 2.3,-1.5c-1.2,3.0 3.3,3.8 6.5,0.0c1.6,-3.8 3.8,3.8 5.5,-0.1M53.9,187.2c2.0,-3.9 4.6,3.9 6.6,1.0c1.9,3.3 4.4,-3.3 6.3,0.9c1.3,-4.2 3.1,4.2 4.5,-1.2c1.7,4.0 3.9,-4.0 5.5,-1.1c1.4,2.8 3.2,-2.8 4.5,0.2c1.5,2.7 3.6,-2.7 5.2,-1.1M95.4,187.5c1.2,-7.1 3.0,-7.1 4.9,0.1c1.3,-6.7 3.4,-6.7 2.2,-1.5c-1.2,2.4 3.1,4.2 6.3,0.0c1.1,-6.8 3.1,-6.7 2.0,-1.5c-1.2,2.6 2.9,4.6 5.7,0.0c1.3,3.0 3.1,-3.0 4.4,-0.3c1.4,-10.5 3.3,-7.1 5.5,-0.4c1.4,-8.6 3.5,-10.8 5.8,-0.2M134.6,187.7c2.0,3.7 4.7,-3.7 6.7,0.1"/><path d="M8.8,198.6c0.8,-6.5 2.3,-8.7 1.5,-1.5c-1.2,2.4 2.1,4.0 4.2,0.0c1.7,3.0 4.0,-3.0 5.7,-1.1c1.7,2.8 4.0,-2.8 5.6,0.7c1.7,3.4 4.0,-3.4 5.8,0.9c1.5,-8.0 3.6,-7.2 6.0,0.5M42.8,198.0c1.7,-3.4 3.9,3.4 5.6,0.9c1.4,4.2 3.2,-4.2 4.6,0.4c1.7,-7.1 4.0,-9.9 6.6,1.0c1.5,-4.1 3.6,4.1 5.2,1.1c1.4,-9.6 3.4,-7.3 5.6,1.0c1.7,3.0 4.0,-3.0 5.7,1.0"/><path d="M8.2,209.7c2.0,-3.5 4.7,3.5 6.7,-0.5c1.3,3.9 3.0,-3.9 4.3,-0.8c1.7,-2.7 4.0,2.7 5.7,-0.1c1.1,-10.1 2.6,-7.3 4.3,0.4c1.9,-4.0 4.5,4.0 6.4,-1.2M42.3,209.7c0.9,-7.1 2.6,-6.6 1.6,-1.5c-1.2,3.3 2.3,3.3 4.7,0.0c2.0,4.1 4.7,-4.1 6.7,0.1c1.6,-4.1 3.7,4.1 5.3,0.5c1.8,-4.4 4.3,4.4 6.1,-0.2c1.3,-6.0 3.7,-5.9 2.3,-1.5c-1.2,3.9 3.3,4.3 6.7,0.0c1.8,-4.3 4.3,4.3 6.2,-0.8M82.9,209.8c1.6,4.5 3.8,-4.5 5.5,-0.3c1.6,-3.2 3.6,3.2 5.2,0.1c1.3,-9.9 3.1,-7.2 5.1,-0.1M104.3,210.3c1.4,-8.9 3.4,-7.6 5.7,0.1c1.8,2.7 4.1,-2.7 5.9,-0.3c0.9,-5.6 2.5,-5.8 1.6,-1.5c-1.2,3.7 2.3,4.5 4.6,0.0c1.6,-3.1 3.7,3.1 5.3,1.1M131.8,209.1c1.9,4.5 4.4,-4.5 6.3,-0.3"/><path d="M9.8,220.8c1.3,-10.8 3.2,-10.2 5.4,-0.1c1.7,-3.4 4.0,3.4 5.7,-1.0c1.7,-3.3 3.9,3.3 5.5,0.1c0.9,-5.8 2.6,-5.5 1.7,-1.5c-1.2,2.4 2.4,4.9 4.7,0.0c2.0,3.1 4.7,-3.1 6.7,-0.4c1.4,-8.2 3.4,-9.8 5.6,-1.0M48.6,221.6c1.8,3.0 4.1,-3.0 5.9,-0.7c1.7,-3.0 4.0,3.0 5.7,-0.5c1.3,2.5 3.1,-2.5 4.4,-1.1c1.2,-7.8 2.8,-10.2 4.7,0.3M76.8,220.1c1.7,2.8 4.1,-2.8 5.8,0.1c1.7,4.3 4.0,-4.3 5.8,0.8c2.0,4.0 4.7,-4.0 6.8,0.5c1.4,-10.5 3.4,-7.9 5.6,0.6c1.1,-9.9 2.7,-9.2 4.5,-0.6M110.5,221.4c1.8,-2.7 4.2,2.7 6.0,0.3c1.3,-2.6 3.1,2.6 4.4,-1.2c1.8,-4.0 4.3,4.0 6.1,0.3M131.7,220.8c1.7,4.2 3.9,-4.2 5.6,0.5"/><path d="M6.2,232.0c1.3,2.9 3.1,-2.9 4.4,-0.8c1.8,3.8 4.2,-3.8 6.0,0.3c1.0,-5.7 2.6,-5.1 1.7,-1.5c-1.2,2.2 2.4,4.3 4.8,0.0M27.9,232.1c1.2,-6.6 3.2,-8.0 2.0,-1.5c-1.2,3.1 2.9,4.8 5.8,0.0c1.3,4.4 3.1,-4.4 4.5,0.6c1.6,2.7 3.6,-2.7 5.2,-1.0c2.0,-3.2 4.7,3.2 6.8,-0.0M55.6,231.7c1.3,-5.9 3.6,-8.3 2.3,-1.5c-1.2,2.2 3.3,3.5 6.5,0.0c1.6,2.8 3.7,-2.8 5.3,0.3c1.5,-7.8 3.7,-8.2 6.1,-0.7c2.0,3.6 4.6,-3.6 6.6,-0.8M86.6,232.1c1.4,4.4 3.4,-4.4 4.8,0.9c1.6,2.6 3.7,-2.6 5.3,0.4c1.7,3.5 4.0,-3.5 5.7,-0.6c1.7,2.7 3.9,-2.7 5.5,-1.1c1.6,-9.0 3.8,-8.8 6.3,-0.3M122.6,231.3c1.6,-2.9 3.7,2.9 5.3,0.0c2.0,-4.2 4.7,4.2 6.7,-0.0c1.3,-9.9 3.1,-9.8 5.2,-0.1"/></g></svg>