<svg xmlns="http://www.w3.org/2000/svg" width="150" height="236" viewBox="0 0 150 236"><g fill="none" stroke="#463320" stroke-width="0.9" stroke-linecap="round" stroke-linejoin="round"><path d="M7.6,12.2L7.5,7.0C7.9,6.0 11.1,6.0 11.3,8.8L11.3,12.2M13.5,4.0L13.4,12.2M11.8,7.0L15.4,7.0M20.8,8.0C17.0,6.0 16.8,12.5 20.6,11.2M22.2,12.0L22.3,7.0C22.7,6.0 25.9,6.0 26.1,8.8L26.1,11.8M27.9,12.0L27.7,7.0C28.1,6.0 31.3,6.0 31.5,8.8L31.5,12.3M38.9,4.0L39.3,11.7M37.7,7.0L41.3,7.0M46.3,7.6C43.7,6.4 42.7,8.6 45.1,9.2C47.3,9.8 46.2,12.5 43.5,11.4M57.2,7.6C55.7,6.6 53.5,7.0 53.7,9.6C53.9,11.7 56.7,12.0 57.2,10.0M57.2,7.6L57.2,13.4C57.1,15.0 54.7,15.0 54.1,13.6M62.6,3.0L62.7,11.7M62.7,8.4C61.2,6.8 59.0,7.0 59.2,9.6C59.2,12.1 61.8,12.1 62.7,10.6M64.3,3.0L64.7,12.2M68.4,15.0L68.1,7.0M68.1,8.6C69.5,6.8 71.9,7.4 71.9,9.6C71.9,11.6 69.5,12.2 68.1,10.6M77.0,7.6C74.4,6.4 73.4,8.6 75.8,9.2C78.0,9.8 76.9,12.7 74.2,11.4M84.1,7.0L84.7,11.7M87.3,3.0L87.4,12.0M87.4,9.0C88.2,6.6 91.0,6.4 91.2,9.0L91.2,11.8M93.3,7.0L93.3,10.8C93.3,12.2 96.3,12.2 97.1,10.6L97.1,7.0M97.1,10.6L97.1,12.3M104.0,3.0L104.1,12.1M104.1,9.0C104.9,6.6 107.7,6.4 107.9,9.0L107.9,11.9M109.2,7.0L109.5,11.9M119.9,7.6C118.4,6.6 116.2,7.0 116.4,9.6C116.6,11.7 119.4,11.8 119.9,10.0M119.9,7.6L119.9,13.4C119.8,15.0 117.4,15.0 116.8,13.6M122.1,12.0L121.9,7.0C122.3,6.0 125.5,6.0 125.7,8.8L125.7,12.3M127.2,3.0L127.7,11.7M132.5,7.0C129.9,7.0 129.9,12.2 132.5,11.7C135.1,12.3 135.1,7.0 132.5,7.0M136.1,9.4L139.7,9.4C139.8,6.6 135.9,6.4 136.1,9.4C136.1,12.0 138.9,12.1 139.9,11.0"/><path d="M9.0,23.2L9.1,18.4M9.1,20.4C9.9,18.2 11.9,18.0 12.5,19.2M13.3,15.4L13.3,23.4M12.1,18.4L15.7,18.4M17.4,15.4L17.6,23.0M16.2,18.4L19.8,18.4M27.3,15.4L27.1,23.4M25.7,18.4L29.3,18.4M31.2,20.8L34.8,20.8C34.9,18.0 31.0,17.8 31.2,20.8C31.2,23.6 34.0,23.5 35.0,22.4M36.5,20.8L40.1,20.8C40.2,18.0 36.3,17.8 36.5,20.8C36.5,23.5 39.3,23.2 40.3,22.4M49.5,19.0C48.0,18.0 45.8,18.4 46.0,21.0C46.2,23.5 49.0,23.3 49.5,21.4M49.5,19.0L49.5,24.8C49.4,26.4 47.0,26.4 46.4,25.0M54.8,19.0L54.9,23.6M54.9,19.8C53.4,18.2 51.2,18.4 51.4,21.0C51.4,23.3 54.0,23.2 54.9,22.0M62.2,23.6L61.9,18.4C62.3,17.4 65.5,17.4 65.7,20.2L65.7,23.7M67.7,18.4L69.6,23.0L71.5,18.4M73.3,23.2L73.1,18.4C73.5,17.4 76.7,17.4 76.9,20.2L76.9,23.2M81.9,20.8L85.5,20.8C85.6,18.0 81.7,17.8 81.9,20.8C81.9,23.5 84.7,23.3 85.7,22.4M87.4,26.4L87.3,18.4M87.3,20.0C88.7,18.2 91.1,18.8 91.1,21.0C91.1,23.0 88.7,23.6 87.3,22.0M93.1,18.4L93.1,22.2C93.1,23.4 96.1,23.2 96.9,22.0L96.9,18.4M96.9,22.0L96.9,23.7M103.7,15.4L103.9,23.7M102.4,18.4L106.0,18.4M108.2,15.4L108.3,23.6M106.6,18.4L110.2,18.4M113.9,18.4C111.3,18.4 111.3,23.4 113.9,23.4C116.5,23.2 116.5,18.4 113.9,18.4M117.9,23.6L117.7,18.4C118.0,17.4 120.3,17.4 120.5,20.0L120.5,23.2M120.5,19.8C120.8,17.4 123.1,17.4 123.3,20.0L123.3,23.6M132.3,18.4C129.7,18.4 129.7,23.4 132.3,23.4C134.9,23.6 134.9,18.4 132.3,18.4"/><path d="M9.4,35.1L9.2,29.7C9.6,28.7 12.8,28.7 13.0,31.5L13.0,34.6M18.7,30.7C14.9,28.7 14.7,35.2 18.5,33.9M29.4,30.7C25.6,28.7 25.4,35.2 29.2,33.9M34.5,30.3C33.0,29.3 30.8,29.7 31.0,32.3C31.2,34.8 34.0,34.4 34.5,32.7M34.5,30.3L34.5,36.1C34.4,37.7 32.0,37.7 31.4,36.3M39.8,30.3C38.3,29.3 36.1,29.7 36.3,32.3C36.5,34.5 39.3,34.7 39.8,32.7M39.8,30.3L39.8,36.1C39.7,37.7 37.3,37.7 36.7,36.3M43.9,29.7C41.3,29.7 41.3,34.5 43.9,34.8C46.5,34.5 46.5,29.7 43.9,29.7M47.6,35.1L47.7,29.7C48.0,28.7 50.3,28.7 50.5,31.3L50.5,34.9M50.5,31.1C50.8,28.7 53.1,28.7 53.3,31.3L53.3,34.8M63.0,29.7C60.4,29.7 60.4,35.0 63.0,34.5C65.6,34.4 65.6,29.7 63.0,29.7M67.0,29.7L66.8,34.5M73.4,34.6L73.5,29.7C73.8,28.7 76.1,28.7 76.3,31.3L76.3,34.7M76.3,31.1C76.6,28.7 78.9,28.7 79.1,31.3L79.1,34.7M80.7,35.0L81.1,29.7C81.5,28.7 84.7,28.7 84.9,31.5L84.9,34.5M89.7,30.3C87.1,29.1 86.1,31.3 88.5,31.9C90.7,32.5 89.6,35.1 86.9,34.1M91.6,29.7L93.5,34.7L95.4,29.7M99.1,29.7C96.5,29.7 96.5,34.8 99.1,34.4C101.7,35.1 101.7,29.7 99.1,29.7M102.5,34.6L102.7,29.7C103.1,28.7 106.3,28.7 106.5,31.5L106.5,34.6M115.6,30.7C111.8,28.7 111.6,35.2 115.4,33.9M117.0,29.7L118.9,34.7L120.8,29.7M125.4,30.3L125.5,34.8M125.5,31.1C124.0,29.5 121.8,29.7 122.0,32.3C122.0,34.7 124.6,34.9 125.5,33.3M127.2,34.4L127.2,29.7C127.6,28.7 130.8,28.7 131.0,31.5L131.0,34.6M133.0,32.1L136.6,32.1C136.7,29.3 132.8,29.1 133.0,32.1C133.0,34.6 135.8,34.9 136.8,33.7"/><path d="M9.0,46.0L9.0,41.1M9.0,43.1C9.8,40.9 11.8,40.7 12.4,41.9M17.5,42.1C13.7,40.1 13.5,46.6 17.3,45.3M22.4,41.7C19.8,40.5 18.8,42.7 21.2,43.3C23.4,43.9 22.3,46.6 19.6,45.5M27.8,41.7C26.3,40.7 24.1,41.1 24.3,43.7C24.5,45.9 27.3,46.2 27.8,44.1M27.8,41.7L27.8,47.5C27.7,49.1 25.3,49.1 24.7,47.7M33.5,42.1C29.7,40.1 29.5,46.6 33.3,45.3M39.3,43.5L42.9,43.5C43.0,40.7 39.1,40.5 39.3,43.5C39.3,45.8 42.1,46.3 43.1,45.1M44.8,38.1L45.0,46.1M43.3,41.1L46.9,41.1M52.5,42.1C48.7,40.1 48.5,46.6 52.3,45.3M62.9,41.7C61.4,40.7 59.2,41.1 59.4,43.7C59.6,46.1 62.4,45.9 62.9,44.1M62.9,41.7L62.9,47.5C62.8,49.1 60.4,49.1 59.8,47.7M65.0,41.1L65.1,46.0M68.6,41.1L68.4,46.1M74.9,41.7C72.3,40.5 71.3,42.7 73.7,43.3C75.9,43.9 74.8,46.2 72.1,45.5M79.6,38.1L80.3,46.2M78.5,41.1L82.1,41.1M83.9,38.1L84.2,45.9M82.4,41.1L86.0,41.1M91.1,37.1L91.2,46.3M91.2,42.5C89.7,40.9 87.5,41.1 87.7,43.7C87.7,46.4 90.3,45.9 91.2,44.7M102.3,37.1L102.4,46.3M102.4,42.5C100.9,40.9 98.7,41.1 98.9,43.7C98.9,46.3 101.5,46.1 102.4,44.7M104.0,41.1L103.9,45.8M110.5,37.1L111.3,46.4M116.1,41.1C113.5,41.1 113.5,46.0 116.1,46.0C118.7,46.0 118.7,41.1 116.1,41.1M120.0,37.1L120.3,46.0M123.4,37.1L123.5,46.1M126.5,46.2L126.7,41.1C127.1,40.1 130.3,40.1 130.5,42.9L130.5,46.0M132.6,37.1L133.2,46.1"/><path d="M7.7,52.5L7.3,57.5M11.2,49.5L10.8,57.5M9.5,52.5L13.1,52.5M16.7,52.5C14.1,52.5 14.1,57.6 16.7,57.3C19.3,57.5 19.3,52.5 16.7,52.5M20.6,52.5L22.0,57.3L23.4,54.5L24.8,57.3L26.2,52.5M32.1,49.5L31.8,57.5M30.4,52.5L34.0,52.5M35.6,54.9L39.2,54.9C39.3,52.1 35.4,51.9 35.6,54.9C35.6,57.2 38.4,57.4 39.4,56.5M45.8,48.5L45.6,57.2M45.6,54.5C46.4,52.1 49.2,51.9 49.4,54.5L49.4,57.3M54.9,53.1L55.0,57.6M55.0,53.9C53.5,52.3 51.3,52.5 51.5,55.1C51.5,57.3 54.1,57.8 55.0,56.1M57.1,49.5L56.9,57.7M55.4,52.5L59.0,52.5M64.6,53.5C60.8,51.5 60.6,58.0 64.4,56.7M70.0,57.7L70.3,52.5C70.7,51.5 73.9,51.5 74.1,54.3L74.1,57.4M75.7,57.3L75.9,52.5M75.9,54.5C76.7,52.3 78.7,52.1 79.3,53.3M80.4,49.5L81.0,57.3M79.3,52.5L82.9,52.5M84.5,52.5L84.5,56.3C84.5,57.3 87.5,57.3 88.3,56.1L88.3,52.5M88.3,56.1L88.3,57.5M90.2,52.5L91.6,57.3L93.0,54.5L94.4,57.6L95.8,52.5M100.7,52.5L100.7,56.3C100.7,57.3 103.7,57.4 104.5,56.1L104.5,52.5M104.5,56.1L104.5,57.6M106.5,54.9L110.1,54.9C110.2,52.1 106.3,51.9 106.5,54.9C106.5,57.6 109.3,57.4 110.3,56.5M117.8,57.7L117.7,52.5C118.0,51.5 120.3,51.5 120.5,54.1L120.5,57.7M120.5,53.9C120.8,51.5 123.1,51.5 123.3,54.1L123.3,57.7M128.6,53.1L128.7,57.3M128.7,53.9C127.2,52.3 125.0,52.5 125.2,55.1C125.2,57.6 127.8,57.6 128.7,56.1M130.3,49.5L130.7,57.2M129.0,52.5L132.6,52.5"/><path d="M7.5,63.8L9.4,68.6L11.3,63.8M12.9,69.0L13.0,63.8C13.3,62.8 15.6,62.8 15.8,65.4L15.8,68.6M15.8,65.2C16.1,62.8 18.4,62.8 18.6,65.4L18.6,68.6M20.5,66.2L24.1,66.2C24.2,63.4 20.3,63.2 20.5,66.2C20.5,69.2 23.3,68.8 24.3,67.8M27.8,63.8C25.2,63.8 25.2,68.7 27.8,68.5C30.4,69.0 30.4,63.8 27.8,63.8M31.3,63.8L31.3,67.6C31.3,69.0 34.3,68.5 35.1,67.4L35.1,63.8M35.1,67.4L35.1,68.9M36.6,63.8L38.5,69.1L40.4,63.8M46.3,63.8L46.3,67.6C46.3,68.9 49.3,68.6 50.1,67.4L50.1,63.8M50.1,67.4L50.1,68.7M51.5,59.8L51.7,69.1M51.7,65.8C52.5,63.4 55.3,63.2 55.5,65.8L55.5,69.1M60.9,64.8C57.1,62.8 56.9,69.3 60.7,68.0M63.0,63.8L62.8,68.7M65.9,66.2L69.5,66.2C69.6,63.4 65.7,63.2 65.9,66.2C65.9,69.0 68.7,69.1 69.7,67.8M71.5,71.8L71.2,63.8M71.2,65.4C72.6,63.6 75.0,64.2 75.0,66.4C75.0,68.4 72.6,69.0 71.2,67.4M80.5,66.2L84.1,66.2C84.2,63.4 80.3,63.2 80.5,66.2C80.5,68.9 83.3,69.1 84.3,67.8M87.9,63.8C85.3,63.8 85.3,68.5 87.9,68.8C90.5,68.7 90.5,63.8 87.9,63.8M91.2,68.8L91.3,63.8M91.3,65.8C92.1,63.6 94.1,63.4 94.7,64.6M96.2,63.8L98.1,69.1L100.0,63.8M107.5,63.8C104.9,63.8 104.9,68.7 107.5,68.7C110.1,68.6 110.1,63.8 107.5,63.8M113.3,63.8C110.7,63.8 110.7,69.0 113.3,69.1C115.9,68.7 115.9,63.8 113.3,63.8M116.6,69.2L116.6,63.8M116.6,65.8C117.4,63.6 119.4,63.4 120.0,64.6M120.9,63.8L120.9,68.8M127.1,63.8L127.3,68.8M134.5,64.8C130.7,62.8 130.5,69.3 134.3,68.0"/><path d="M7.0,71.2L7.5,80.4M10.8,80.0L10.4,75.2C10.8,74.2 14.0,74.2 14.2,77.0L14.2,80.5M18.3,75.2C15.7,75.2 15.7,80.4 18.3,80.4C20.9,80.6 20.9,75.2 18.3,75.2M26.7,77.6L30.3,77.6C30.4,74.8 26.5,74.6 26.7,77.6C26.7,80.5 29.5,80.2 30.5,79.2M35.3,75.8C32.7,74.6 31.7,76.8 34.1,77.4C36.3,78.0 35.2,80.9 32.5,79.6M40.5,75.8C37.9,74.6 36.9,76.8 39.3,77.4C41.5,78.0 40.4,80.7 37.7,79.6M46.3,75.2L46.3,79.0C46.3,80.6 49.3,79.9 50.1,78.8L50.1,75.2M50.1,78.8L50.1,80.2M54.9,75.8C52.3,74.6 51.3,76.8 53.7,77.4C55.9,78.0 54.8,80.6 52.1,79.6M56.8,75.2L56.8,79.0C56.8,80.4 59.8,79.9 60.6,78.8L60.6,75.2M60.6,78.8L60.6,80.6M62.6,75.2L62.6,79.0C62.6,80.2 65.6,80.2 66.4,78.8L66.4,75.2M66.4,78.8L66.4,80.4M70.4,75.2C67.8,75.2 67.8,80.5 70.4,80.0C73.0,80.2 73.0,75.2 70.4,75.2M73.6,72.2L74.0,80.5M72.5,75.2L76.1,75.2M83.5,75.2L85.4,80.0L87.3,75.2M88.8,80.3L88.8,75.2C89.1,74.2 91.4,74.2 91.6,76.8L91.6,80.4M91.6,76.6C91.9,74.2 94.2,74.2 94.4,76.8L94.4,80.1M96.4,80.2L96.4,75.2C96.8,74.2 100.0,74.2 100.2,77.0L100.2,80.5M103.9,75.2C101.3,75.2 101.3,80.3 103.9,80.5C106.5,80.5 106.5,75.2 103.9,75.2M111.6,75.2L111.6,79.0C111.6,80.3 114.6,80.4 115.4,78.8L115.4,75.2M115.4,78.8L115.4,80.4M120.6,76.2C116.8,74.2 116.6,80.7 120.4,79.4M122.5,75.2L122.5,80.4M130.6,71.2L130.7,80.3M130.7,77.2C131.5,74.8 134.3,74.6 134.5,77.2L134.5,80.0"/><path d="M9.7,86.6L9.4,91.9M12.7,86.6L12.4,91.8M18.8,87.2L18.9,91.7M18.9,88.0C17.4,86.4 15.2,86.6 15.4,89.2C15.4,91.5 18.0,91.9 18.9,90.2M20.6,86.6L22.5,91.6L24.4,86.6M25.6,89.0L29.2,89.0C29.3,86.2 25.4,86.0 25.6,89.0C25.6,91.8 28.4,91.6 29.4,90.6M36.6,91.8L36.8,86.6M36.8,88.6C37.6,86.4 39.6,86.2 40.2,87.4M41.4,86.6L41.4,91.6M51.4,87.2L51.5,91.3M51.5,88.0C50.0,86.4 47.8,86.6 48.0,89.2C48.0,91.4 50.6,91.9 51.5,90.2M53.1,91.4L53.4,86.6C53.8,85.6 57.0,85.6 57.2,88.4L57.2,91.8M62.0,91.3L62.4,86.6C62.8,85.6 66.0,85.6 66.2,88.4L66.2,91.6M67.9,86.6L67.9,90.4C67.9,91.3 70.9,91.4 71.7,90.2L71.7,86.6M71.7,90.2L71.7,91.3M75.8,86.6C73.2,86.6 73.2,91.9 75.8,91.8C78.4,91.3 78.4,86.6 75.8,86.6"/><path d="M9.4,93.9L9.2,103.3M9.2,99.9C10.0,97.5 12.8,97.3 13.0,99.9L13.0,102.8M14.7,100.3L18.3,100.3C18.4,97.5 14.5,97.3 14.7,100.3C14.7,103.0 17.5,102.8 18.5,101.9M23.7,98.9C19.9,96.9 19.7,103.4 23.5,102.1M25.0,105.9L25.2,97.9M25.2,99.5C26.6,97.7 29.0,98.3 29.0,100.5C29.0,102.5 26.6,103.1 25.2,101.5M31.0,97.9L31.0,101.7C31.0,103.2 34.0,102.6 34.8,101.5L34.8,97.9M34.8,101.5L34.8,102.8M42.6,93.9L42.3,102.8M42.3,99.9C43.1,97.5 45.9,97.3 46.1,99.9L46.1,102.9M47.8,97.9L48.0,103.2M59.8,98.5C57.2,97.3 56.2,99.5 58.6,100.1C60.8,100.7 59.7,103.2 57.0,102.3M61.8,102.9L61.8,97.9C62.2,96.9 65.4,96.9 65.6,99.7L65.6,102.9M67.3,100.3L70.9,100.3C71.0,97.5 67.1,97.3 67.3,100.3C67.3,102.8 70.1,103.2 71.1,101.9M72.5,103.1L72.6,97.9C72.9,96.9 75.2,96.9 75.4,99.5L75.4,103.1M75.4,99.3C75.7,96.9 78.0,96.9 78.2,99.5L78.2,103.2M80.1,103.1L80.2,97.9C80.6,96.9 83.8,96.9 84.0,99.7L84.0,102.9M86.0,97.9L86.0,101.7C86.0,102.8 89.0,102.6 89.8,101.5L89.8,97.9M89.8,101.5L89.8,102.8M96.6,97.9L98.0,103.0L99.4,99.9L100.8,102.7L102.2,97.9M103.4,97.9L103.4,101.7C103.4,103.1 106.4,103.2 107.2,101.5L107.2,97.9M107.2,101.5L107.2,103.1M113.1,100.3L116.7,100.3C116.8,97.5 112.9,97.3 113.1,100.3C113.1,102.7 115.9,103.3 116.9,101.9M121.8,98.5C119.2,97.3 118.2,99.5 120.6,100.1C122.8,100.7 121.7,103.2 119.0,102.3M127.5,98.9C123.7,96.9 123.5,103.4 127.3,102.1M128.8,93.9L129.5,103.2M135.3,98.5C132.7,97.3 131.7,99.5 134.1,100.1C136.3,100.7 135.2,103.7 132.5,102.3M136.8,93.9L137.0,103.3M137.0,99.9C137.8,97.5 140.6,97.3 140.8,99.9L140.8,102.6"/><path d="M7.3,117.3L7.4,109.3M7.4,110.9C8.8,109.1 11.2,109.7 11.2,111.9C11.2,113.9 8.8,114.5 7.4,112.9M12.9,114.4L13.1,109.3C13.5,108.3 16.7,108.3 16.9,111.1L16.9,114.2M18.7,105.3L18.7,114.4M25.5,110.3C21.7,108.3 21.5,114.8 25.3,113.5M27.2,109.3L29.1,114.0L31.0,109.3M32.6,105.3L32.6,114.0M40.3,114.1L40.3,109.3M40.3,111.3C41.1,109.1 43.1,108.9 43.7,110.1M44.8,117.3L44.7,109.3M44.7,110.9C46.1,109.1 48.5,109.7 48.5,111.9C48.5,113.9 46.1,114.5 44.7,112.9M50.0,109.3L50.0,113.1C50.0,114.5 53.0,114.6 53.8,112.9L53.8,109.3M53.8,112.9L53.8,114.5M55.7,114.6L55.6,109.3C56.0,108.3 59.2,108.3 59.4,111.1L59.4,114.6M60.9,109.3L61.0,114.1M67.7,110.3C63.9,108.3 63.7,114.8 67.5,113.5M74.1,109.3L73.8,114.5M80.8,110.3C77.0,108.3 76.8,114.8 80.6,113.5M82.4,105.3L82.7,114.4M85.7,109.3L85.5,114.5M88.7,109.3L88.7,113.1C88.7,114.5 91.7,114.2 92.5,112.9L92.5,109.3M92.5,112.9L92.5,114.0M98.0,110.3C94.2,108.3 94.0,114.8 97.8,113.5M105.4,109.3C102.8,109.3 102.8,114.4 105.4,114.3C108.0,114.1 108.0,109.3 105.4,109.3M108.8,106.3L108.5,114.6M107.4,109.3L111.0,109.3M112.6,111.7L116.2,111.7C116.3,108.9 112.4,108.7 112.6,111.7C112.6,114.3 115.4,114.4 116.4,113.3M118.1,111.7L121.7,111.7C121.8,108.9 117.9,108.7 118.1,111.7C118.1,114.0 120.9,114.5 121.9,113.3M123.7,111.7L127.3,111.7C127.4,108.9 123.5,108.7 123.7,111.7C123.7,114.5 126.5,114.6 127.5,113.3M134.9,109.3L136.8,114.4L138.7,109.3"/><path d="M13.5,121.7C9.7,119.7 9.5,126.2 13.3,124.9M15.4,117.7L15.4,125.6M14.0,120.7L17.6,120.7M19.4,120.7L19.2,125.7M22.1,116.7L22.9,125.9M25.7,120.7L25.6,125.4M29.3,120.7L29.3,124.5C29.3,125.4 32.3,125.7 33.1,124.3L33.1,120.7M33.1,124.3L33.1,125.7M38.9,117.7L39.1,125.9M37.4,120.7L41.0,120.7M46.3,121.3L46.4,125.5M46.4,122.1C44.9,120.5 42.7,120.7 42.9,123.3C42.9,125.4 45.5,125.8 46.4,124.3M48.3,123.1L51.9,123.1C52.0,120.3 48.1,120.1 48.3,123.1C48.3,125.6 51.1,126.0 52.1,124.7M53.5,116.7L53.7,125.5M53.7,122.7C54.5,120.3 57.3,120.1 57.5,122.7L57.5,125.9M59.3,123.1L62.9,123.1C63.0,120.3 59.1,120.1 59.3,123.1C59.3,125.4 62.1,125.7 63.1,124.7M72.1,121.7C68.3,119.7 68.1,126.2 71.9,124.9M73.4,120.7L74.1,125.6M76.5,116.7L77.1,125.7M80.1,117.7L80.0,125.3M78.7,120.7L82.3,120.7M88.4,126.0L88.6,120.7M88.6,122.7C89.4,120.5 91.4,120.3 92.0,121.5M93.0,120.7L92.9,125.5M96.8,125.8L96.5,120.7C96.9,119.7 100.1,119.7 100.3,122.5L100.3,126.0M104.1,120.7C101.5,120.7 101.5,125.8 104.1,125.5C106.7,125.7 106.7,120.7 104.1,120.7M113.4,123.1L117.0,123.1C117.1,120.3 113.2,120.1 113.4,123.1C113.4,125.8 116.2,125.6 117.2,124.7M118.7,120.7L120.6,125.9L122.5,120.7M123.9,117.7L123.7,126.0M122.3,120.7L125.9,120.7M127.6,123.1L131.2,123.1C131.3,120.3 127.4,120.1 127.6,123.1C127.6,125.7 130.4,126.0 131.4,124.7M136.8,121.3C135.3,120.3 133.1,120.7 133.3,123.3C133.5,125.3 136.3,125.7 136.8,123.7M136.8,121.3L136.8,127.1C136.7,128.7 134.3,128.7 133.7,127.3"/><path d="M9.1,132.1L8.9,137.0M12.6,128.1L12.3,137.2M12.3,134.1C13.1,131.7 15.9,131.5 16.1,134.1L16.1,137.1M18.0,132.1L19.4,136.9L20.8,134.1L22.2,136.9L23.6,132.1M28.0,132.7C25.4,131.5 24.4,133.7 26.8,134.3C29.0,134.9 27.9,137.7 25.2,136.5M38.8,133.1C35.0,131.1 34.8,137.6 38.6,136.3M40.1,134.5L43.7,134.5C43.8,131.7 39.9,131.5 40.1,134.5C40.1,136.8 42.9,137.1 43.9,136.1M48.5,132.7C45.9,131.5 44.9,133.7 47.3,134.3C49.5,134.9 48.4,137.7 45.7,136.5M50.0,134.5L53.6,134.5C53.7,131.7 49.8,131.5 50.0,134.5C50.0,137.1 52.8,137.4 53.8,136.1M58.8,134.5L62.4,134.5C62.5,131.7 58.6,131.5 58.8,134.5C58.8,137.3 61.6,137.2 62.6,136.1M68.1,133.1C64.3,131.1 64.1,137.6 67.9,136.3M71.8,132.1C69.2,132.1 69.2,136.9 71.8,136.7C74.4,137.2 74.4,132.1 71.8,132.1M75.3,140.1L75.2,132.1M75.2,133.7C76.6,131.9 79.0,132.5 79.0,134.7C79.0,136.7 76.6,137.3 75.2,135.7M82.6,132.1C80.0,132.1 80.0,136.7 82.6,137.2C85.2,137.0 85.2,132.1 82.6,132.1M91.2,132.1L91.2,136.9M94.4,134.5L98.0,134.5C98.1,131.7 94.2,131.5 94.4,134.5C94.4,136.9 97.2,137.4 98.2,136.1M108.2,132.7C105.6,131.5 104.6,133.7 107.0,134.3C109.2,134.9 108.1,137.4 105.4,136.5M113.4,133.1C109.6,131.1 109.4,137.6 113.2,136.3M115.2,129.1L115.2,136.7M113.8,132.1L117.4,132.1M126.8,132.7L126.9,137.0M126.9,133.5C125.4,131.9 123.2,132.1 123.4,134.7C123.4,137.0 126.0,137.2 126.9,135.7M129.1,132.1L129.3,136.9M135.5,132.7L135.6,137.3M135.6,133.5C134.1,131.9 131.9,132.1 132.1,134.7C132.1,137.0 134.7,136.8 135.6,135.7M141.3,133.1C137.5,131.1 137.3,137.6 141.1,136.3"/><path d="M9.5,143.4L9.5,147.2C9.5,148.1 12.5,148.6 13.3,147.0L13.3,143.4M13.3,147.0L13.3,148.5M15.1,143.4L15.1,147.2C15.1,148.1 18.1,148.8 18.9,147.0L18.9,143.4M18.9,147.0L18.9,148.8M21.0,145.8L24.6,145.8C24.7,143.0 20.8,142.8 21.0,145.8C21.0,148.4 23.8,148.4 24.8,147.4M29.8,144.4C26.0,142.4 25.8,148.9 29.6,147.6M31.5,143.4L31.5,147.2C31.5,148.1 34.5,148.3 35.3,147.0L35.3,143.4M35.3,147.0L35.3,148.8M40.7,144.4C36.9,142.4 36.7,148.9 40.5,147.6M47.5,143.4L47.5,147.2C47.5,148.1 50.5,148.2 51.3,147.0L51.3,143.4M51.3,147.0L51.3,148.8M54.9,143.4C52.3,143.4 52.3,148.4 54.9,148.6C57.5,148.4 57.5,143.4 54.9,143.4M58.6,151.4L58.5,143.4M58.5,145.0C59.9,143.2 62.3,143.8 62.3,146.0C62.3,148.0 59.9,148.6 58.5,147.0M64.2,143.4L64.2,147.2C64.2,148.2 67.2,148.2 68.0,147.0L68.0,143.4M68.0,147.0L68.0,148.7M69.7,148.2L69.9,143.4C70.3,142.4 73.5,142.4 73.7,145.2L73.7,148.3"/><path d="M8.5,159.7L8.2,154.8M8.2,156.8C9.0,154.6 11.0,154.4 11.6,155.6M12.9,150.8L13.1,160.1M16.2,154.8L16.2,158.6C16.2,159.9 19.2,160.0 20.0,158.4L20.0,154.8M20.0,158.4L20.0,159.8M29.6,155.4C27.0,154.2 26.0,156.4 28.4,157.0C30.6,157.6 29.5,159.8 26.8,159.2M34.9,155.8C31.1,153.8 30.9,160.3 34.7,159.0M36.7,150.8L36.4,159.7M36.4,156.8C37.2,154.4 40.0,154.2 40.2,156.8L40.2,159.7M42.1,162.8L42.1,154.8M42.1,156.4C43.5,154.6 45.9,155.2 45.9,157.4C45.9,159.4 43.5,160.0 42.1,158.4M47.9,157.2L51.5,157.2C51.6,154.4 47.7,154.2 47.9,157.2C47.9,159.7 50.7,159.7 51.7,158.8M56.7,154.8L56.7,158.6C56.7,159.6 59.7,160.0 60.5,158.4L60.5,154.8M60.5,158.4L60.5,160.1M62.3,162.8L62.3,154.8M62.3,156.4C63.7,154.6 66.1,155.2 66.1,157.4C66.1,159.4 63.7,160.0 62.3,158.4M67.8,157.2L71.4,157.2C71.5,154.4 67.6,154.2 67.8,157.2C67.8,159.7 70.6,159.8 71.6,158.8M78.1,151.8L78.0,159.5M76.7,154.8L80.3,154.8M81.8,154.8L81.7,159.8"/><path d="M8.0,163.2L7.9,171.3M6.8,166.2L10.4,166.2M15.5,166.8C12.9,165.6 11.9,167.8 14.3,168.4C16.5,169.0 15.4,171.4 12.7,170.6M19.2,166.2C16.6,166.2 16.6,171.3 19.2,171.1C21.8,170.9 21.8,166.2 19.2,166.2M22.9,163.2L23.1,171.2M21.5,166.2L25.1,166.2M28.9,166.2C26.3,166.2 26.3,171.4 28.9,171.5C31.5,171.3 31.5,166.2 28.9,166.2M32.0,163.2L32.0,171.4M30.8,166.2L34.4,166.2M40.3,168.6L43.9,168.6C44.0,165.8 40.1,165.6 40.3,168.6C40.3,171.5 43.1,171.1 44.1,170.2M48.9,166.8C47.4,165.8 45.2,166.2 45.4,168.8C45.6,171.4 48.4,171.1 48.9,169.2M48.9,166.8L48.9,172.6C48.8,174.2 46.4,174.2 45.8,172.8M50.8,166.2L50.6,170.9M57.1,162.2L57.2,170.8M57.2,167.6C55.7,166.0 53.5,166.2 53.7,168.8C53.7,171.0 56.3,171.5 57.2,169.8M67.5,167.2C63.7,165.2 63.5,171.7 67.3,170.4M69.0,163.2L69.5,170.8M67.8,166.2L71.4,166.2M76.6,167.2C72.8,165.2 72.6,171.7 76.4,170.4M78.4,162.2L78.2,170.9M78.2,168.2C79.0,165.8 81.8,165.6 82.0,168.2L82.0,171.3M83.7,163.2L83.9,171.4M82.6,166.2L86.2,166.2M88.1,162.2L88.1,171.4M95.8,162.2L96.3,171.0M99.2,166.2L101.1,171.4L103.0,166.2M104.8,162.2L104.6,170.9M112.3,166.2L112.6,171.4M115.8,168.6L119.4,168.6C119.5,165.8 115.6,165.6 115.8,168.6C115.8,171.3 118.6,171.3 119.6,170.2M121.1,166.2L122.5,171.2L123.9,168.2L125.3,170.9L126.7,166.2M133.6,162.2L134.0,171.1"/><path d="M9.2,179.9L12.8,179.9C12.9,177.1 9.0,176.9 9.2,179.9C9.2,182.8 12.0,182.4 13.0,181.5M17.8,178.1C15.2,176.9 14.2,179.1 16.6,179.7C18.8,180.3 17.7,182.7 15.0,181.9M19.8,179.9L23.4,179.9C23.5,177.1 19.6,176.9 19.8,179.9C19.8,182.9 22.6,182.8 23.6,181.5M28.7,178.5C24.9,176.5 24.7,183.0 28.5,181.7M39.7,178.1C37.1,176.9 36.1,179.1 38.5,179.7C40.7,180.3 39.6,183.0 36.9,181.9M45.3,178.5C41.5,176.5 41.3,183.0 45.1,181.7M46.8,177.5L48.7,182.8L50.6,177.5M52.2,177.5L51.8,182.3M55.6,177.5L55.8,182.6M58.6,185.5L58.7,177.5M58.7,179.1C60.1,177.3 62.5,177.9 62.5,180.1C62.5,182.1 60.1,182.7 58.7,181.1M73.2,178.1C71.7,177.1 69.5,177.5 69.7,180.1C69.9,182.4 72.7,182.4 73.2,180.5M73.2,178.1L73.2,183.9C73.1,185.5 70.7,185.5 70.1,184.1M75.4,177.5L75.4,181.3C75.4,182.5 78.4,182.5 79.2,181.1L79.2,177.5M79.2,181.1L79.2,182.8M85.3,185.5L85.3,177.5M85.3,179.1C86.7,177.3 89.1,177.9 89.1,180.1C89.1,182.1 86.7,182.7 85.3,181.1M90.7,177.5L91.0,182.7"/><path d="M12.2,189.9C8.4,187.9 8.2,194.4 12.0,193.1M13.6,185.9L13.9,194.2M12.4,188.9L16.0,188.9M17.5,184.9L18.3,193.9M30.4,189.5C27.8,188.3 26.8,190.5 29.2,191.1C31.4,191.7 30.3,194.5 27.6,193.3M32.3,188.9L32.4,194.0M35.4,194.2L35.5,188.9C35.9,187.9 39.1,187.9 39.3,190.7L39.3,193.7M40.9,188.9L41.0,194.2M47.6,189.9C43.8,187.9 43.6,194.4 47.4,193.1M49.3,188.9L51.2,194.1L53.1,188.9M61.9,189.9C58.1,187.9 57.9,194.4 61.7,193.1M63.5,185.9L63.6,194.0M62.4,188.9L66.0,188.9M73.1,193.9L72.8,188.9C73.1,187.9 75.4,187.9 75.6,190.5L75.6,194.0M75.6,190.3C75.9,187.9 78.2,187.9 78.4,190.5L78.4,193.7M80.0,191.3L83.6,191.3C83.7,188.5 79.8,188.3 80.0,191.3C80.0,194.1 82.8,193.6 83.8,192.9M85.5,188.9L85.4,193.7M88.8,188.9L88.5,194.0M91.6,191.3L95.2,191.3C95.3,188.5 91.4,188.3 91.6,191.3C91.6,194.0 94.4,193.9 95.4,192.9M103.5,188.9C100.9,188.9 100.9,194.2 103.5,193.9C106.1,193.9 106.1,188.9 103.5,188.9M107.1,191.3L110.7,191.3C110.8,188.5 106.9,188.3 107.1,191.3C107.1,194.0 109.9,193.6 110.9,192.9M112.5,191.3L116.1,191.3C116.2,188.5 112.3,188.3 112.5,191.3C112.5,193.6 115.3,194.0 116.3,192.9M121.6,184.9L122.0,193.7M128.5,189.5C125.9,188.3 124.9,190.5 127.3,191.1C129.5,191.7 128.4,194.1 125.7,193.3M135.7,196.9L135.6,188.9M135.6,190.5C137.0,188.7 139.4,189.3 139.4,191.5C139.4,193.5 137.0,194.1 135.6,192.5"/><path d="M8.0,202.7L11.6,202.7C11.7,199.9 7.8,199.7 8.0,202.7C8.0,205.4 10.8,205.4 11.8,204.3M16.9,200.9C15.4,199.9 13.2,200.3 13.4,202.9C13.6,204.9 16.4,205.5 16.9,203.3M16.9,200.9L16.9,206.7C16.8,208.3 14.4,208.3 13.8,206.9M20.7,200.3C18.1,200.3 18.1,205.4 20.7,205.3C23.3,205.3 23.3,200.3 20.7,200.3M27.7,201.3C23.9,199.3 23.7,205.8 27.5,204.5M29.1,200.3L29.1,204.1C29.1,205.1 32.1,204.9 32.9,203.9L32.9,200.3M32.9,203.9L32.9,205.3M34.9,205.2L34.9,200.3M34.9,202.3C35.7,200.1 37.7,199.9 38.3,201.1M47.2,200.3C44.6,200.3 44.6,205.1 47.2,205.5C49.8,205.5 49.8,200.3 47.2,200.3M50.8,197.3L51.2,205.6M49.7,200.3L53.3,200.3M60.4,196.3L60.5,205.3M63.4,197.3L63.4,205.5M62.2,200.3L65.8,200.3M67.6,200.3L67.9,205.4M70.5,202.7L74.1,202.7C74.2,199.9 70.3,199.7 70.5,202.7C70.5,205.6 73.3,205.4 74.3,204.3M79.0,200.9C76.4,199.7 75.4,201.9 77.8,202.5C80.0,203.1 78.9,205.9 76.2,204.7M80.4,208.3L80.6,200.3M80.6,201.9C82.0,200.1 84.4,200.7 84.4,202.9C84.4,204.9 82.0,205.5 80.6,203.9M92.0,200.3L92.0,204.1C92.0,205.4 95.0,205.0 95.8,203.9L95.8,200.3M95.8,203.9L95.8,205.3M101.1,201.3C97.3,199.3 97.1,205.8 100.9,204.5M102.6,200.3L102.6,204.1C102.6,205.3 105.6,205.0 106.4,203.9L106.4,200.3M106.4,203.9L106.4,205.4M108.5,202.7L112.1,202.7C112.2,199.9 108.3,199.7 108.5,202.7C108.5,205.3 111.3,205.5 112.3,204.3M117.7,201.3C113.9,199.3 113.7,205.8 117.5,204.5M123.4,208.3L123.4,200.3M123.4,201.9C124.8,200.1 127.2,200.7 127.2,202.9C127.2,204.9 124.8,205.5 123.4,203.9M132.3,201.3C128.5,199.3 128.3,205.8 132.1,204.5M134.1,205.5L134.0,200.3C134.4,199.3 137.6,199.3 137.8,202.1L137.8,205.0"/><path d="M9.6,211.6L9.6,215.4C9.6,216.9 12.6,216.6 13.4,215.2L13.4,211.6M13.4,215.2L13.4,217.0M15.1,216.6L15.1,211.6C15.5,210.6 18.7,210.6 18.9,213.4L18.9,216.4M21.1,207.6L20.9,216.6M24.3,216.5L24.3,211.6C24.6,210.6 26.9,210.6 27.1,213.2L27.1,216.6M27.1,213.0C27.4,210.6 29.7,210.6 29.9,213.2L29.9,216.7M33.9,211.6C31.3,211.6 31.3,216.6 33.9,216.8C36.5,216.8 36.5,211.6 33.9,211.6M41.0,207.6L41.2,216.8M41.2,213.6C42.0,211.2 44.8,211.0 45.0,213.6L45.0,216.3M48.8,211.6C46.2,211.6 46.2,216.5 48.8,216.5C51.4,216.7 51.4,211.6 48.8,211.6M60.2,211.6C57.6,211.6 57.6,216.9 60.2,216.7C62.8,216.4 62.8,211.6 60.2,211.6M67.2,212.2C64.6,211.0 63.6,213.2 66.0,213.8C68.2,214.4 67.1,217.1 64.4,216.0M69.2,211.6L68.8,216.8M73.9,211.6C71.3,211.6 71.3,216.4 73.9,216.3C76.5,216.5 76.5,211.6 73.9,211.6M86.2,212.2C84.7,211.2 82.5,211.6 82.7,214.2C82.9,216.5 85.7,216.4 86.2,214.6M86.2,212.2L86.2,218.0C86.1,219.6 83.7,219.6 83.1,218.2M88.5,211.6L89.9,216.5L91.3,213.6L92.7,216.4L94.1,211.6M99.1,211.6L99.1,215.4C99.1,216.5 102.1,216.4 102.9,215.2L102.9,211.6M102.9,215.2L102.9,216.5M104.5,208.6L104.4,216.9M103.1,211.6L106.7,211.6M111.6,207.6L111.7,217.0M111.7,213.0C110.2,211.4 108.0,211.6 108.2,214.2C108.2,216.5 110.8,216.8 111.7,215.2"/><path d="M7.2,219.0L7.6,227.9M13.9,219.0L14.0,228.2M14.0,224.4C12.5,222.8 10.3,223.0 10.5,225.6C10.5,228.1 13.1,228.2 14.0,226.6M16.2,219.0L16.6,227.7M28.3,223.6C25.7,222.4 24.7,224.6 27.1,225.2C29.3,225.8 28.2,228.1 25.5,227.4M30.0,225.4L33.6,225.4C33.7,222.6 29.8,222.4 30.0,225.4C30.0,228.1 32.8,228.1 33.8,227.0M43.3,223.6C41.8,222.6 39.6,223.0 39.8,225.6C40.0,227.9 42.8,227.9 43.3,226.0M43.3,223.6L43.3,229.4C43.2,231.0 40.8,231.0 40.2,229.6M45.8,228.2L45.6,223.0C46.0,222.0 49.2,222.0 49.4,224.8L49.4,227.7M54.6,224.0C50.8,222.0 50.6,228.5 54.4,227.2M59.7,223.6L59.8,227.7M59.8,224.4C58.3,222.8 56.1,223.0 56.3,225.6C56.3,227.9 58.9,227.7 59.8,226.6M61.4,225.4L65.0,225.4C65.1,222.6 61.2,222.4 61.4,225.4C61.4,228.1 64.2,228.1 65.2,227.0M70.2,220.0L70.1,227.9M69.0,223.0L72.6,223.0M78.1,219.0L78.2,227.7M78.2,224.4C76.7,222.8 74.5,223.0 74.7,225.6C74.7,228.0 77.3,227.8 78.2,226.6M83.7,224.0C79.9,222.0 79.7,228.5 83.5,227.2M85.6,219.0L85.3,227.8M88.9,227.8L88.5,223.0C88.9,222.0 92.1,222.0 92.3,224.8L92.3,228.0M93.9,228.2L93.9,223.0C94.3,222.0 97.5,222.0 97.7,224.8L97.7,228.1M104.1,223.0L104.1,227.8M107.1,227.7L107.4,223.0C107.7,222.0 110.0,222.0 110.2,224.6L110.2,228.1M110.2,224.4C110.5,222.0 112.8,222.0 113.0,224.6L113.0,228.2M114.8,223.0L114.6,227.9M118.2,225.4L121.8,225.4C121.9,222.6 118.0,222.4 118.2,225.4C118.2,227.7 121.0,228.3 122.0,227.0M127.1,223.0L127.1,228.3M133.4,223.6C130.8,222.4 129.8,224.6 132.2,225.2C134.4,225.8 133.3,228.6 130.6,227.4M135.5,219.0L135.7,228.3"/></g></svg>