<svg xmlns="http://www.w3.org/2000/svg" width="150" height="236" viewBox="0 0 150 236"><g fill="none" stroke="#463320" stroke-width="0.9" stroke-linecap="round" stroke-linejoin="round"><path d="M9.0,4.0L9.7,11.7M8.0,7.0L11.6,7.0M13.3,7.0L13.2,11.9M24.4,7.0C21.8,7.0 21.8,12.2 24.4,11.9C27.0,12.1 27.0,7.0 24.4,7.0M28.3,15.0L28.0,7.0M28.0,8.6C29.4,6.8 31.8,7.4 31.8,9.6C31.8,11.6 29.4,12.2 28.0,10.6M38.7,7.0L40.6,12.1L42.5,7.0M46.1,7.0C43.5,7.0 43.5,11.8 46.1,11.7C48.7,11.7 48.7,7.0 46.1,7.0M49.4,12.2L49.7,7.0C50.0,6.0 52.3,6.0 52.5,8.6L52.5,11.8M52.5,8.4C52.8,6.0 55.1,6.0 55.3,8.6L55.3,12.1M58.8,7.0C56.2,7.0 56.2,12.1 58.8,12.2C61.4,11.8 61.4,7.0 58.8,7.0M67.1,12.0L67.2,7.0C67.5,6.0 69.8,6.0 70.0,8.6L70.0,12.3M70.0,8.4C70.3,6.0 72.6,6.0 72.8,8.6L72.8,11.9M74.7,7.0L76.6,11.8L78.5,7.0M79.6,9.4L83.2,9.4C83.3,6.6 79.4,6.4 79.6,9.4C79.6,12.3 82.4,12.2 83.4,11.0M94.4,8.0C90.6,6.0 90.4,12.5 94.2,11.2M98.2,7.0C95.6,7.0 95.6,12.0 98.2,11.9C100.8,12.2 100.8,7.0 98.2,7.0M101.6,9.4L105.2,9.4C105.3,6.6 101.4,6.4 101.6,9.4C101.6,12.2 104.4,12.2 105.4,11.0M107.0,4.0L106.6,12.3M105.5,7.0L109.1,7.0M111.0,7.0L111.1,11.7M114.1,4.0L113.9,11.7M112.6,7.0L116.2,7.0M122.1,7.0L122.0,11.9M125.1,11.7L125.3,7.0C125.7,6.0 128.9,6.0 129.1,8.8L129.1,12.3M131.3,12.1L131.1,7.0C131.4,6.0 133.7,6.0 133.9,8.6L133.9,12.1M133.9,8.4C134.2,6.0 136.5,6.0 136.7,8.6L136.7,12.3"/><path d="M13.4,19.4C9.6,17.4 9.4,23.9 13.2,22.6M14.7,23.4L14.7,18.4C15.1,17.4 18.3,17.4 18.5,20.2L18.5,23.2M20.5,23.1L20.3,18.4C20.6,17.4 22.9,17.4 23.1,20.0L23.1,23.1M23.1,19.8C23.4,17.4 25.7,17.4 25.9,20.0L25.9,23.1M27.8,18.4L27.8,22.2C27.8,23.5 30.8,23.6 31.6,22.0L31.6,18.4M31.6,22.0L31.6,23.1M33.6,14.4L34.2,23.2M40.9,23.7L41.0,18.4C41.3,17.4 43.6,17.4 43.8,20.0L43.8,23.3M43.8,19.8C44.1,17.4 46.4,17.4 46.6,20.0L46.6,23.1M51.8,19.0C49.2,17.8 48.2,20.0 50.6,20.6C52.8,21.2 51.7,23.7 49.0,22.8M62.5,19.4C58.7,17.4 58.5,23.9 62.3,22.6M64.2,18.4L64.0,23.6M69.2,18.4C66.6,18.4 66.6,23.6 69.2,23.2C71.8,23.3 71.8,18.4 69.2,18.4M72.5,18.4L72.5,22.2C72.5,23.2 75.5,23.6 76.3,22.0L76.3,18.4M76.3,22.0L76.3,23.2M81.4,19.0C79.9,18.0 77.7,18.4 77.9,21.0C78.1,23.3 80.9,23.4 81.4,21.4M81.4,19.0L81.4,24.8C81.3,26.4 78.9,26.4 78.3,25.0M91.3,19.0L91.4,23.4M91.4,19.8C89.9,18.2 87.7,18.4 87.9,21.0C87.9,23.4 90.5,23.5 91.4,22.0M96.8,19.4C93.0,17.4 92.8,23.9 96.6,22.6M103.8,18.4L103.8,22.2C103.8,23.1 106.8,23.1 107.6,22.0L107.6,18.4M107.6,22.0L107.6,23.2M109.3,18.4L109.6,23.1M112.4,23.3L112.3,18.4C112.7,17.4 115.9,17.4 116.1,20.2L116.1,23.2M125.9,19.0C123.3,17.8 122.3,20.0 124.7,20.6C126.9,21.2 125.8,24.0 123.1,22.8M128.2,15.4L128.3,23.4M126.6,18.4L130.2,18.4M132.5,15.4L132.3,23.1M130.8,18.4L134.4,18.4M136.0,18.4L136.6,23.3"/><path d="M9.8,32.1L13.4,32.1C13.5,29.3 9.6,29.1 9.8,32.1C9.8,34.6 12.6,34.6 13.6,33.7M15.1,29.7L15.3,34.7M18.1,34.4L18.4,29.7C18.8,28.7 22.0,28.7 22.2,31.5L22.2,34.5M24.1,29.7L24.2,35.0M27.6,29.7L27.6,33.5C27.6,35.0 30.6,34.8 31.4,33.3L31.4,29.7M31.4,33.3L31.4,34.6M35.1,29.7C32.5,29.7 32.5,34.6 35.1,34.9C37.7,34.4 37.7,29.7 35.1,29.7M42.5,32.1L46.1,32.1C46.2,29.3 42.3,29.1 42.5,32.1C42.5,34.5 45.3,34.8 46.3,33.7M47.5,35.1L47.7,29.7C48.1,28.7 51.3,28.7 51.5,31.5L51.5,34.7M56.5,30.3C53.9,29.1 52.9,31.3 55.3,31.9C57.5,32.5 56.4,35.3 53.7,34.1M58.6,34.8L58.5,29.7C58.9,28.7 62.1,28.7 62.3,31.5L62.3,34.7M64.1,29.7L64.0,34.5M74.0,30.3L74.1,35.0M74.1,31.1C72.6,29.5 70.4,29.7 70.6,32.3C70.6,35.0 73.2,34.8 74.1,33.3M76.2,34.6L76.1,29.7C76.5,28.7 79.7,28.7 79.9,31.5L79.9,34.4M81.6,37.7L81.8,29.7M81.8,31.3C83.2,29.5 85.6,30.1 85.6,32.3C85.6,34.3 83.2,34.9 81.8,33.3M91.1,29.7L90.9,34.6M94.3,34.8L94.2,29.7C94.6,28.7 97.8,28.7 98.0,31.5L98.0,34.7M103.0,30.3C100.4,29.1 99.4,31.3 101.8,31.9C104.0,32.5 102.9,35.4 100.2,34.1M105.1,29.7L107.0,34.5L108.9,29.7M113.4,30.3C110.8,29.1 109.8,31.3 112.2,31.9C114.4,32.5 113.3,34.8 110.6,34.1M116.9,29.7C114.3,29.7 114.3,34.7 116.9,34.8C119.5,34.4 119.5,29.7 116.9,29.7M125.9,25.7L126.2,34.5M126.2,31.7C127.0,29.3 129.8,29.1 130.0,31.7L130.0,35.0M135.5,30.7C131.7,28.7 131.5,35.2 135.3,33.9M136.5,25.7L136.8,34.7M136.8,31.7C137.6,29.3 140.4,29.1 140.6,31.7L140.6,34.7"/><path d="M7.3,43.5L10.9,43.5C11.0,40.7 7.1,40.5 7.3,43.5C7.3,46.2 10.1,46.1 11.1,45.1M15.0,41.1C12.4,41.1 12.4,45.8 15.0,45.9C17.6,46.4 17.6,41.1 15.0,41.1M18.5,41.1L18.5,45.8M26.5,41.1L26.5,44.9C26.5,46.4 29.5,46.1 30.3,44.7L30.3,41.1M30.3,44.7L30.3,46.3M32.3,43.5L35.9,43.5C36.0,40.7 32.1,40.5 32.3,43.5C32.3,45.9 35.1,46.2 36.1,45.1M41.0,41.7C38.4,40.5 37.4,42.7 39.8,43.3C42.0,43.9 40.9,46.5 38.2,45.5M46.4,42.1C42.6,40.1 42.4,46.6 46.2,45.3M48.3,41.1L48.0,45.9M57.2,41.1C54.6,41.1 54.6,45.9 57.2,46.1C59.8,45.9 59.8,41.1 57.2,41.1M60.9,37.1L61.4,45.9M64.3,38.1L64.1,46.1M62.7,41.1L66.3,41.1M72.8,46.2L72.7,41.1C73.1,40.1 76.3,40.1 76.5,42.9L76.5,45.8M78.7,37.1L78.6,46.2M78.6,43.1C79.4,40.7 82.2,40.5 82.4,43.1L82.4,46.0M87.8,38.1L87.9,46.2M86.3,41.1L89.9,41.1M91.6,46.2L91.9,41.1M91.9,43.1C92.7,40.9 94.7,40.7 95.3,41.9M96.3,43.5L99.9,43.5C100.0,40.7 96.1,40.5 96.3,43.5C96.3,46.0 99.1,46.3 100.1,45.1M101.6,41.1L101.6,46.1M105.1,41.1L104.7,45.8M108.0,37.1L108.7,46.4M116.9,41.1C114.3,41.1 114.3,46.1 116.9,46.2C119.5,46.1 119.5,41.1 116.9,41.1M120.1,37.1L120.6,45.8M123.8,46.3L123.7,41.1C124.1,40.1 127.3,40.1 127.5,42.9L127.5,45.9M129.5,38.1L129.4,46.2M127.9,41.1L131.5,41.1"/><path d="M11.8,53.1C9.2,51.9 8.2,54.1 10.6,54.7C12.8,55.3 11.7,57.7 9.0,56.9M13.9,49.5L13.7,57.8M12.4,52.5L16.0,52.5M21.2,53.5C17.4,51.5 17.2,58.0 21.0,56.7M22.6,57.2L22.8,52.5C23.2,51.5 26.4,51.5 26.6,54.3L26.6,57.4M33.7,54.9L37.3,54.9C37.4,52.1 33.5,51.9 33.7,54.9C33.7,57.2 36.5,57.6 37.5,56.5M42.9,53.5C39.1,51.5 38.9,58.0 42.7,56.7M44.6,54.9L48.2,54.9C48.3,52.1 44.4,51.9 44.6,54.9C44.6,57.7 47.4,57.5 48.4,56.5M56.9,48.5L57.0,57.3M57.0,53.9C55.5,52.3 53.3,52.5 53.5,55.1C53.5,57.2 56.1,57.5 57.0,56.1M58.7,54.9L62.3,54.9C62.4,52.1 58.5,51.9 58.7,54.9C58.7,57.5 61.5,57.4 62.5,56.5M67.7,53.5C63.9,51.5 63.7,58.0 67.5,56.7M69.1,52.5L69.1,56.3C69.1,57.1 72.1,57.1 72.9,56.1L72.9,52.5M72.9,56.1L72.9,57.2M82.1,48.5L82.2,57.8M82.2,53.9C80.7,52.3 78.5,52.5 78.7,55.1C78.7,57.3 81.3,57.3 82.2,56.1M84.1,57.4L84.3,52.5M84.3,54.5C85.1,52.3 87.1,52.1 87.7,53.3M89.0,52.5L89.0,56.3C89.0,57.2 92.0,57.2 92.8,56.1L92.8,52.5M92.8,56.1L92.8,57.2M98.1,53.5C94.3,51.5 94.1,58.0 97.9,56.7M108.8,53.1C107.3,52.1 105.1,52.5 105.3,55.1C105.5,57.4 108.3,57.4 108.8,55.5M108.8,53.1L108.8,58.9C108.7,60.5 106.3,60.5 105.7,59.1M111.1,54.9L114.7,54.9C114.8,52.1 110.9,51.9 111.1,54.9C111.1,57.3 113.9,57.6 114.9,56.5M121.3,52.5L122.7,57.8L124.1,54.5L125.5,57.5L126.9,52.5M128.5,52.5L129.9,57.4L131.3,54.5L132.7,57.2L134.1,52.5M135.4,57.7L135.6,52.5C136.0,51.5 139.2,51.5 139.4,54.3L139.4,57.6"/><path d="M7.8,63.8L7.8,67.6C7.8,69.0 10.8,68.7 11.6,67.4L11.6,63.8M11.6,67.4L11.6,69.1M13.0,60.8L13.1,68.8M11.8,63.8L15.4,63.8M22.1,63.8L22.1,67.6C22.1,68.9 25.1,69.1 25.9,67.4L25.9,63.8M25.9,67.4L25.9,69.2M27.2,63.8L27.7,69.1M32.7,63.8C30.1,63.8 30.1,69.0 32.7,69.0C35.3,68.9 35.3,63.8 32.7,63.8M39.7,64.4C38.2,63.4 36.0,63.8 36.2,66.4C36.4,69.0 39.2,68.8 39.7,66.8M39.7,64.4L39.7,70.2C39.6,71.8 37.2,71.8 36.6,70.4M41.8,71.8L41.7,63.8M41.7,65.4C43.1,63.6 45.5,64.2 45.5,66.4C45.5,68.4 43.1,69.0 41.7,67.4M47.0,66.2L50.6,66.2C50.7,63.4 46.8,63.2 47.0,66.2C47.0,69.0 49.8,69.1 50.8,67.8M57.5,63.8L57.5,67.6C57.5,68.9 60.5,68.9 61.3,67.4L61.3,63.8M61.3,67.4L61.3,68.5M63.2,60.8L63.0,68.8M61.5,63.8L65.1,63.8M67.2,69.1L66.9,63.8C67.2,62.8 69.5,62.8 69.7,65.4L69.7,68.6M69.7,65.2C70.0,62.8 72.3,62.8 72.5,65.4L72.5,69.1M74.3,66.2L77.9,66.2C78.0,63.4 74.1,63.2 74.3,66.2C74.3,68.8 77.1,68.9 78.1,67.8M88.6,64.4C87.1,63.4 84.9,63.8 85.1,66.4C85.3,68.5 88.1,68.7 88.6,66.8M88.6,64.4L88.6,70.2C88.5,71.8 86.1,71.8 85.5,70.4M90.7,69.2L90.6,63.8M90.6,65.8C91.4,63.6 93.4,63.4 94.0,64.6M95.4,63.8L95.4,67.6C95.4,68.8 98.4,68.6 99.2,67.4L99.2,63.8M99.2,67.4L99.2,69.1M104.6,64.8C100.8,62.8 100.6,69.3 104.4,68.0"/><path d="M10.9,71.2L11.0,80.1M11.0,76.6C9.5,75.0 7.3,75.2 7.5,77.8C7.5,79.9 10.1,80.2 11.0,78.8M12.8,77.6L16.4,77.6C16.5,74.8 12.6,74.6 12.8,77.6C12.8,80.6 15.6,80.3 16.6,79.2M18.3,80.3L18.4,75.2M18.4,77.2C19.2,75.0 21.2,74.8 21.8,76.0M29.8,75.2C27.2,75.2 27.2,80.2 29.8,80.3C32.4,80.5 32.4,75.2 29.8,75.2M33.7,80.2L33.6,75.2M33.6,77.2C34.4,75.0 36.4,74.8 37.0,76.0M42.4,77.6L46.0,77.6C46.1,74.8 42.2,74.6 42.4,77.6C42.4,80.1 45.2,80.4 46.2,79.2M51.2,76.2C47.4,74.2 47.2,80.7 51.0,79.4M52.9,83.2L52.6,75.2M52.6,76.8C54.0,75.0 56.4,75.6 56.4,77.8C56.4,79.8 54.0,80.4 52.6,78.8M58.1,75.2L60.0,80.3L61.9,75.2M67.3,77.6L70.9,77.6C71.0,74.8 67.1,74.6 67.3,77.6C67.3,79.9 70.1,80.0 71.1,79.2M72.8,83.2L72.8,75.2M72.8,76.8C74.2,75.0 76.6,75.6 76.6,77.8C76.6,79.8 74.2,80.4 72.8,78.8M77.9,72.2L78.2,80.5M76.8,75.2L80.4,75.2M85.4,75.8C82.8,74.6 81.8,76.8 84.2,77.4C86.4,78.0 85.3,80.4 82.6,79.6M91.7,79.9L91.7,75.2C92.1,74.2 95.3,74.2 95.5,77.0L95.5,80.1M97.2,79.9L97.1,75.2M97.1,77.2C97.9,75.0 99.9,74.8 100.5,76.0M102.0,71.2L101.7,80.3M101.7,77.2C102.5,74.8 105.3,74.6 105.5,77.2L105.5,80.5M109.2,75.2C106.6,75.2 106.6,80.3 109.2,80.0C111.8,80.4 111.8,75.2 109.2,75.2M116.3,71.2L116.4,80.0M116.4,76.6C114.9,75.0 112.7,75.2 112.9,77.8C112.9,80.0 115.5,80.0 116.4,78.8M121.8,71.2L121.9,80.4M121.9,76.6C120.4,75.0 118.2,75.2 118.4,77.8C118.4,80.2 121.0,80.4 121.9,78.8M129.1,80.3L128.9,75.2C129.2,74.2 131.5,74.2 131.7,76.8L131.7,80.2M131.7,76.6C132.0,74.2 134.3,74.2 134.5,76.8L134.5,80.4"/><path d="M7.2,86.6L7.6,91.8M10.8,82.6L10.7,91.3M10.7,88.6C11.5,86.2 14.3,86.0 14.5,88.6L14.5,91.6M20.6,82.6L20.9,91.5M20.9,88.6C21.7,86.2 24.5,86.0 24.7,88.6L24.7,91.5M26.2,86.6L27.6,91.7L29.0,88.6L30.4,91.6L31.8,86.6M33.4,86.6L33.4,90.4C33.4,91.9 36.4,91.6 37.2,90.2L37.2,86.6M37.2,90.2L37.2,91.4M38.5,83.6L38.7,91.8M37.4,86.6L41.0,86.6M46.4,87.2L46.5,91.3M46.5,88.0C45.0,86.4 42.8,86.6 43.0,89.2C43.0,91.3 45.6,91.8 46.5,90.2M56.8,87.2L56.9,91.8M56.9,88.0C55.4,86.4 53.2,86.6 53.4,89.2C53.4,91.8 56.0,91.9 56.9,90.2M61.8,87.2C59.2,86.0 58.2,88.2 60.6,88.8C62.8,89.4 61.7,92.2 59.0,91.0M68.5,91.4L68.5,86.6C68.9,85.6 72.1,85.6 72.3,88.4L72.3,91.4M73.9,89.0L77.5,89.0C77.6,86.2 73.7,86.0 73.9,89.0C73.9,91.9 76.7,91.8 77.7,90.6M79.4,82.6L79.5,91.8M84.6,86.6C82.0,86.6 82.0,91.9 84.6,91.8C87.2,91.7 87.2,86.6 84.6,86.6"/><path d="M7.3,93.9L8.0,103.1M11.0,103.0L10.7,97.9M10.7,99.9C11.5,97.7 13.5,97.5 14.1,98.7M15.3,103.2L15.4,97.9M15.4,99.9C16.2,97.7 18.2,97.5 18.8,98.7M23.8,98.9C20.0,96.9 19.8,103.4 23.6,102.1M25.0,97.9L25.2,102.7M31.4,98.5C28.8,97.3 27.8,99.5 30.2,100.1C32.4,100.7 31.3,103.2 28.6,102.3M37.9,93.9L38.2,103.1M41.0,105.9L41.2,97.9M41.2,99.5C42.6,97.7 45.0,98.3 45.0,100.5C45.0,102.5 42.6,103.1 41.2,101.5M50.3,98.5C48.8,97.5 46.6,97.9 46.8,100.5C47.0,102.7 49.8,102.7 50.3,100.9M50.3,98.5L50.3,104.3C50.2,105.9 47.8,105.9 47.2,104.5M55.6,98.9C51.8,96.9 51.6,103.4 55.4,102.1M57.4,100.3L61.0,100.3C61.1,97.5 57.2,97.3 57.4,100.3C57.4,103.2 60.2,103.1 61.2,101.9M68.8,97.9L68.8,101.7C68.8,103.3 71.8,102.6 72.6,101.5L72.6,97.9M72.6,101.5L72.6,102.9M78.1,98.9C74.3,96.9 74.1,103.4 77.9,102.1M83.5,97.9L84.0,102.8M90.1,98.5C88.6,97.5 86.4,97.9 86.6,100.5C86.8,102.8 89.6,102.9 90.1,100.9M90.1,98.5L90.1,104.3C90.0,105.9 87.6,105.9 87.0,104.5M92.0,94.9L91.5,102.6M90.4,97.9L94.0,97.9M101.1,97.9C98.5,97.9 98.5,102.7 101.1,103.2C103.7,103.2 103.7,97.9 101.1,97.9M104.8,94.9L104.2,102.7M103.1,97.9L106.7,97.9M108.3,105.9L108.4,97.9M108.4,99.5C109.8,97.7 112.2,98.3 112.2,100.5C112.2,102.5 109.8,103.1 108.4,101.5M115.6,97.9C113.0,97.9 113.0,102.7 115.6,103.2C118.2,103.0 118.2,97.9 115.6,97.9M123.1,98.9C119.3,96.9 119.1,103.4 122.9,102.1M133.5,98.5L133.6,102.7M133.6,99.3C132.1,97.7 129.9,97.9 130.1,100.5C130.1,103.2 132.7,102.7 133.6,101.5M135.3,100.3L138.9,100.3C139.0,97.5 135.1,97.3 135.3,100.3C135.3,102.8 138.1,103.2 139.1,101.9"/><path d="M13.1,109.9C11.6,108.9 9.4,109.3 9.6,111.9C9.8,114.6 12.6,114.5 13.1,112.3M13.1,109.9L13.1,115.7C13.0,117.3 10.6,117.3 10.0,115.9M14.6,114.0L14.9,109.3C15.3,108.3 18.5,108.3 18.7,111.1L18.7,114.5M20.5,105.3L21.0,114.2M23.5,109.3L23.5,113.1C23.5,114.6 26.5,114.4 27.3,112.9L27.3,109.3M27.3,112.9L27.3,114.5M29.0,109.3L29.0,113.1C29.0,114.4 32.0,114.6 32.8,112.9L32.8,109.3M32.8,112.9L32.8,114.4M34.6,111.7L38.2,111.7C38.3,108.9 34.4,108.7 34.6,111.7C34.6,114.5 37.4,114.6 38.4,113.3M44.1,114.7L44.4,109.3C44.8,108.3 48.0,108.3 48.2,111.1L48.2,114.5M49.8,109.3L51.7,114.5L53.6,109.3M54.8,109.3L54.8,113.1C54.8,114.2 57.8,114.4 58.6,112.9L58.6,109.3M58.6,112.9L58.6,114.4M60.3,111.7L63.9,111.7C64.0,108.9 60.1,108.7 60.3,111.7C60.3,114.1 63.1,114.5 64.1,113.3M65.7,109.3L65.7,113.1C65.7,114.5 68.7,114.4 69.5,112.9L69.5,109.3M69.5,112.9L69.5,114.6M75.2,105.3L74.9,114.4M74.9,111.3C75.7,108.9 78.5,108.7 78.7,111.3L78.7,114.3M80.2,109.3L82.1,114.0L84.0,109.3M88.6,109.9C86.0,108.7 85.0,110.9 87.4,111.5C89.6,112.1 88.5,114.4 85.8,113.7M97.3,110.3C93.5,108.3 93.3,114.8 97.1,113.5M99.1,109.3L99.1,113.1C99.1,114.0 102.1,114.3 102.9,112.9L102.9,109.3M102.9,112.9L102.9,114.5M106.6,109.3C104.0,109.3 104.0,114.4 106.6,114.6C109.2,114.3 109.2,109.3 106.6,109.3M116.8,109.3C114.2,109.3 114.2,114.3 116.8,114.3C119.4,114.3 119.4,109.3 116.8,109.3M120.7,111.7L124.3,111.7C124.4,108.9 120.5,108.7 120.7,111.7C120.7,114.1 123.5,114.6 124.5,113.3M125.9,109.3L127.3,114.7L128.7,111.3L130.1,114.6L131.5,109.3M134.9,109.3C132.3,109.3 132.3,114.5 134.9,114.1C137.5,114.0 137.5,109.3 134.9,109.3"/><path d="M8.6,125.6L8.6,120.7M8.6,122.7C9.4,120.5 11.4,120.3 12.0,121.5M13.4,128.7L13.2,120.7M13.2,122.3C14.6,120.5 17.0,121.1 17.0,123.3C17.0,125.3 14.6,125.9 13.2,124.3M18.9,125.4L18.8,120.7M18.8,122.7C19.6,120.5 21.6,120.3 22.2,121.5M26.6,121.3L26.7,125.4M26.7,122.1C25.2,120.5 23.0,120.7 23.2,123.3C23.2,126.0 25.8,125.8 26.7,124.3M30.6,120.7C28.0,120.7 28.0,125.7 30.6,125.4C33.2,125.4 33.2,120.7 30.6,120.7M34.2,117.7L34.2,125.6M32.7,120.7L36.3,120.7M45.7,121.3C43.1,120.1 42.1,122.3 44.5,122.9C46.7,123.5 45.6,125.9 42.9,125.1M47.7,116.7L48.1,125.8M54.4,125.8L54.7,120.7M54.7,122.7C55.5,120.5 57.5,120.3 58.1,121.5M59.3,120.7L59.3,125.4M64.8,120.7C62.2,120.7 62.2,126.0 64.8,125.5C67.4,125.4 67.4,120.7 64.8,120.7M68.1,120.7L68.4,125.8M75.0,121.7C71.2,119.7 71.0,126.2 74.8,124.9M80.4,121.7C76.6,119.7 76.4,126.2 80.2,124.9M87.5,120.7L87.6,125.8M91.4,116.7L91.1,125.8M91.1,122.7C91.9,120.3 94.7,120.1 94.9,122.7L94.9,125.9M96.3,120.7L96.5,125.7M101.6,120.7C99.0,120.7 99.0,125.4 101.6,126.0C104.2,125.7 104.2,120.7 101.6,120.7M105.2,117.7L105.2,125.7M103.5,120.7L107.1,120.7M108.8,117.7L108.7,125.5M107.5,120.7L111.1,120.7M118.9,120.7L118.9,124.5C118.9,125.7 121.9,125.6 122.7,124.3L122.7,120.7M122.7,124.3L122.7,126.0M124.2,117.7L124.6,125.5M123.0,120.7L126.6,120.7M131.6,121.3C129.0,120.1 128.0,122.3 130.4,122.9C132.6,123.5 131.5,125.8 128.8,125.1"/><path d="M9.8,132.1L11.2,137.0L12.6,134.1L14.0,136.9L15.4,132.1M20.1,133.1C16.3,131.1 16.1,137.6 19.9,136.3M23.9,132.1C21.3,132.1 21.3,136.7 23.9,136.8C26.5,137.4 26.5,132.1 23.9,132.1M31.1,133.1C27.3,131.1 27.1,137.6 30.9,136.3M32.4,128.1L32.7,136.8M40.8,137.1L40.7,132.1C41.1,131.1 44.3,131.1 44.5,133.9L44.5,136.8M46.5,134.5L50.1,134.5C50.2,131.7 46.3,131.5 46.5,134.5C46.5,137.1 49.3,136.8 50.3,136.1M55.8,133.1C52.0,131.1 51.8,137.6 55.6,136.3M60.5,132.7L60.6,137.3M60.6,133.5C59.1,131.9 56.9,132.1 57.1,134.7C57.1,136.7 59.7,136.7 60.6,135.7M62.7,134.5L66.3,134.5C66.4,131.7 62.5,131.5 62.7,134.5C62.7,137.0 65.5,136.9 66.5,136.1M67.8,137.4L67.8,132.1C68.2,131.1 71.4,131.1 71.6,133.9L71.6,137.2M79.4,134.5L83.0,134.5C83.1,131.7 79.2,131.5 79.4,134.5C79.4,137.0 82.2,137.2 83.2,136.1M84.7,137.1L84.6,132.1C85.0,131.1 88.2,131.1 88.4,133.9L88.4,136.8M92.5,132.1C89.9,132.1 89.9,137.4 92.5,136.9C95.1,137.0 95.1,132.1 92.5,132.1M96.2,134.5L99.8,134.5C99.9,131.7 96.0,131.5 96.2,134.5C96.2,136.8 99.0,136.8 100.0,136.1M105.2,128.1L105.3,137.4M105.3,133.5C103.8,131.9 101.6,132.1 101.8,134.7C101.8,137.4 104.4,136.8 105.3,135.7M107.3,134.5L110.9,134.5C111.0,131.7 107.1,131.5 107.3,134.5C107.3,136.9 110.1,137.3 111.1,136.1M117.7,140.1L117.7,132.1M117.7,133.7C119.1,131.9 121.5,132.5 121.5,134.7C121.5,136.7 119.1,137.3 117.7,135.7M126.5,132.7C123.9,131.5 122.9,133.7 125.3,134.3C127.5,134.9 126.4,137.6 123.7,136.5M132.1,132.7C130.6,131.7 128.4,132.1 128.6,134.7C128.8,137.0 131.6,137.3 132.1,135.1M132.1,132.7L132.1,138.5C132.0,140.1 129.6,140.1 129.0,138.7"/><path d="M13.3,144.4C9.5,142.4 9.3,148.9 13.1,147.6M17.0,143.4C14.4,143.4 14.4,148.3 17.0,148.1C19.6,148.5 19.6,143.4 17.0,143.4M24.2,148.1L24.1,143.4C24.5,142.4 27.7,142.4 27.9,145.2L27.9,148.7M29.5,143.4L29.5,147.2C29.5,148.1 32.5,148.1 33.3,147.0L33.3,143.4M33.3,147.0L33.3,148.4M35.4,148.5L35.2,143.4C35.6,142.4 38.8,142.4 39.0,145.2L39.0,148.7M40.8,143.4L40.8,147.2C40.8,148.6 43.8,148.4 44.6,147.0L44.6,143.4M44.6,147.0L44.6,148.7M49.9,144.4C46.1,142.4 45.9,148.9 49.7,147.6M51.9,139.4L52.3,148.8M59.7,139.4L59.5,148.4M59.5,145.4C60.3,143.0 63.1,142.8 63.3,145.4L63.3,148.4M65.0,145.8L68.6,145.8C68.7,143.0 64.8,142.8 65.0,145.8C65.0,148.1 67.8,148.5 68.8,147.4M72.3,143.4C69.7,143.4 69.7,148.2 72.3,148.2C74.9,148.2 74.9,143.4 72.3,143.4M76.3,140.4L76.1,148.7M74.7,143.4L78.3,143.4M79.9,143.4L79.9,147.2C79.9,148.1 82.9,148.5 83.7,147.0L83.7,143.4M83.7,147.0L83.7,148.4M91.0,148.7L91.2,143.4C91.6,142.4 94.8,142.4 95.0,145.2L95.0,148.5M99.1,143.4C96.5,143.4 96.5,148.2 99.1,148.6C101.7,148.3 101.7,143.4 99.1,143.4M104.8,143.4C102.2,143.4 102.2,148.5 104.8,148.7C107.4,148.6 107.4,143.4 104.8,143.4M108.2,143.4L110.1,148.1L112.0,143.4M121.1,144.0C119.6,143.0 117.4,143.4 117.6,146.0C117.8,148.1 120.6,148.4 121.1,146.4M121.1,144.0L121.1,149.8C121.0,151.4 118.6,151.4 118.0,150.0M122.9,143.4L122.9,147.2C122.9,148.1 125.9,148.5 126.7,147.0L126.7,143.4M126.7,147.0L126.7,148.8M128.1,148.4L128.3,143.4C128.7,142.4 131.9,142.4 132.1,145.2L132.1,148.5"/><path d="M7.4,150.8L7.5,159.6M10.7,150.8L11.0,160.0M13.9,154.8L15.8,160.1L17.7,154.8M19.1,154.8L19.1,158.6C19.1,160.0 22.1,160.0 22.9,158.4L22.9,154.8M22.9,158.4L22.9,160.0M28.4,155.4C26.9,154.4 24.7,154.8 24.9,157.4C25.1,160.0 27.9,159.6 28.4,157.8M28.4,155.4L28.4,161.2C28.3,162.8 25.9,162.8 25.3,161.4M35.6,159.8L35.7,154.8C36.1,153.8 39.3,153.8 39.5,156.6L39.5,159.9M41.6,154.8L41.7,159.7M44.9,157.2L48.5,157.2C48.6,154.4 44.7,154.2 44.9,157.2C44.9,159.6 47.7,159.9 48.7,158.8M50.5,160.1L50.6,154.8C51.0,153.8 54.2,153.8 54.4,156.6L54.4,159.8M59.5,155.4L59.6,160.0M59.6,156.2C58.1,154.6 55.9,154.8 56.1,157.4C56.1,159.5 58.7,159.9 59.6,158.4M64.8,155.8C61.0,153.8 60.8,160.3 64.6,159.0M70.3,157.2L73.9,157.2C74.0,154.4 70.1,154.2 70.3,157.2C70.3,159.7 73.1,159.6 74.1,158.8M75.8,154.8L75.8,158.6C75.8,159.6 78.8,160.1 79.6,158.4L79.6,154.8M79.6,158.4L79.6,159.8M81.2,154.8L81.2,158.6C81.2,159.5 84.2,159.6 85.0,158.4L85.0,154.8M85.0,158.4L85.0,160.0M86.7,159.9L87.1,154.8C87.4,153.8 89.7,153.8 89.9,156.4L89.9,159.7M89.9,156.2C90.2,153.8 92.5,153.8 92.7,156.4L92.7,159.8M94.3,160.1L94.6,154.8C95.0,153.8 98.2,153.8 98.4,156.6L98.4,159.8M104.8,154.8L104.8,158.6C104.8,160.1 107.8,159.9 108.6,158.4L108.6,154.8M108.6,158.4L108.6,159.9M110.1,157.2L113.7,157.2C113.8,154.4 109.9,154.2 110.1,157.2C110.1,159.9 112.9,159.5 113.9,158.8M115.5,157.2L119.1,157.2C119.2,154.4 115.3,154.2 115.5,157.2C115.5,159.8 118.3,159.5 119.3,158.8M121.2,154.8L122.6,160.0L124.0,156.8L125.4,159.6L126.8,154.8M133.0,157.2L136.6,157.2C136.7,154.4 132.8,154.2 133.0,157.2C133.0,159.7 135.8,159.7 136.8,158.8"/><path d="M8.8,170.9L8.8,166.2C9.1,165.2 11.4,165.2 11.6,167.8L11.6,171.0M11.6,167.6C11.9,165.2 14.2,165.2 14.4,167.8L14.4,171.5M16.5,163.2L16.4,171.4M14.9,166.2L18.5,166.2M20.2,163.2L20.3,171.5M18.9,166.2L22.5,166.2M24.3,166.2L26.2,171.1L28.1,166.2M37.2,166.8C35.7,165.8 33.5,166.2 33.7,168.8C33.9,171.1 36.7,171.1 37.2,169.2M37.2,166.8L37.2,172.6C37.1,174.2 34.7,174.2 34.1,172.8M39.0,166.2L40.4,171.2L41.8,168.2L43.2,171.0L44.6,166.2M47.8,166.2C45.2,166.2 45.2,171.3 47.8,171.1C50.4,171.4 50.4,166.2 47.8,166.2M55.9,166.2L55.8,171.3M59.3,168.6L62.9,168.6C63.0,165.8 59.1,165.6 59.3,168.6C59.3,171.3 62.1,171.5 63.1,170.2M64.5,166.2L66.4,171.1L68.3,166.2M69.4,168.6L73.0,168.6C73.1,165.8 69.2,165.6 69.4,168.6C69.4,171.3 72.2,171.2 73.2,170.2M75.0,168.6L78.6,168.6C78.7,165.8 74.8,165.6 75.0,168.6C75.0,171.2 77.8,171.3 78.8,170.2M85.6,162.2L85.8,170.8M92.4,167.2C88.6,165.2 88.4,171.7 92.2,170.4M97.3,162.2L97.4,171.3M97.4,167.6C95.9,166.0 93.7,166.2 93.9,168.8C93.9,171.5 96.5,171.0 97.4,169.8M99.1,170.9L99.4,166.2M99.4,168.2C100.2,166.0 102.2,165.8 102.8,167.0"/><path d="M10.0,177.5C7.4,177.5 7.4,182.3 10.0,182.3C12.6,182.5 12.6,177.5 10.0,177.5M13.7,179.9L17.3,179.9C17.4,177.1 13.5,176.9 13.7,179.9C13.7,182.2 16.5,182.3 17.5,181.5M21.2,177.5C18.6,177.5 18.6,182.6 21.2,182.4C23.8,182.8 23.8,177.5 21.2,177.5M24.6,182.3L24.7,177.5C25.0,176.5 27.3,176.5 27.5,179.1L27.5,182.6M27.5,178.9C27.8,176.5 30.1,176.5 30.3,179.1L30.3,182.4M36.0,178.5C32.2,176.5 32.0,183.0 35.8,181.7M40.7,178.1C38.1,176.9 37.1,179.1 39.5,179.7C41.7,180.3 40.6,182.9 37.9,181.9M51.2,178.1C48.6,176.9 47.6,179.1 50.0,179.7C52.2,180.3 51.1,183.2 48.4,181.9M56.3,178.1C53.7,176.9 52.7,179.1 55.1,179.7C57.3,180.3 56.2,182.6 53.5,181.9M58.2,177.5L59.6,182.3L61.0,179.5L62.4,182.4L63.8,177.5M67.1,177.5C64.5,177.5 64.5,182.7 67.1,182.8C69.7,182.7 69.7,177.5 67.1,177.5M70.7,185.5L70.7,177.5M70.7,179.1C72.1,177.3 74.5,177.9 74.5,180.1C74.5,182.1 72.1,182.7 70.7,181.1M79.5,173.5L79.6,182.7M79.6,178.9C78.1,177.3 75.9,177.5 76.1,180.1C76.1,182.7 78.7,182.7 79.6,181.1M87.1,174.5L87.1,182.4M85.7,177.5L89.3,177.5M90.9,185.5L91.2,177.5M91.2,179.1C92.6,177.3 95.0,177.9 95.0,180.1C95.0,182.1 92.6,182.7 91.2,181.1M98.5,177.5C95.9,177.5 95.9,182.3 98.5,182.3C101.1,182.7 101.1,177.5 98.5,177.5M102.0,185.5L102.0,177.5M102.0,179.1C103.4,177.3 105.8,177.9 105.8,180.1C105.8,182.1 103.4,182.7 102.0,181.1M111.6,179.9L115.2,179.9C115.3,177.1 111.4,176.9 111.6,179.9C111.6,182.2 114.4,182.5 115.4,181.5M120.6,178.1L120.7,182.5M120.7,178.9C119.2,177.3 117.0,177.5 117.2,180.1C117.2,182.6 119.8,182.3 120.7,181.1M122.8,182.2L122.7,177.5C123.1,176.5 126.3,176.5 126.5,179.3L126.5,182.3M136.7,178.5C132.9,176.5 132.7,183.0 136.5,181.7"/><path d="M8.4,184.9L8.7,193.8M11.5,184.9L12.3,194.2M14.8,194.1L15.0,188.9M15.0,190.9C15.8,188.7 17.8,188.5 18.4,189.7M20.2,196.9L19.9,188.9M19.9,190.5C21.3,188.7 23.7,189.3 23.7,191.5C23.7,193.5 21.3,194.1 19.9,192.5M29.1,189.9C25.3,187.9 25.1,194.4 28.9,193.1M32.5,188.9C29.9,188.9 29.9,193.8 32.5,193.9C35.1,193.8 35.1,188.9 32.5,188.9M41.6,188.9L41.6,192.7C41.6,194.0 44.6,193.6 45.4,192.5L45.4,188.9M45.4,192.5L45.4,194.0M47.5,194.1L47.5,188.9C47.9,187.9 51.1,187.9 51.3,190.7L51.3,194.1M56.4,189.9C52.6,187.9 52.4,194.4 56.2,193.1M57.9,188.9L57.9,192.7C57.9,193.7 60.9,193.6 61.7,192.5L61.7,188.9M61.7,192.5L61.7,193.8M69.0,185.9L68.6,194.2M67.5,188.9L71.1,188.9M76.2,189.5C73.6,188.3 72.6,190.5 75.0,191.1C77.2,191.7 76.1,194.4 73.4,193.3M77.8,194.1L77.8,188.9C78.1,187.9 80.4,187.9 80.6,190.5L80.6,194.2M80.6,190.3C80.9,187.9 83.2,187.9 83.4,190.5L83.4,193.8M85.1,188.9L86.5,193.7L87.9,190.9L89.3,193.9L90.7,188.9M95.6,189.5C93.0,188.3 92.0,190.5 94.4,191.1C96.6,191.7 95.5,194.3 92.8,193.3M101.5,196.9L101.5,188.9M101.5,190.5C102.9,188.7 105.3,189.3 105.3,191.5C105.3,193.5 102.9,194.1 101.5,192.5M107.3,188.9L107.1,194.1M110.5,191.3L114.1,191.3C114.2,188.5 110.3,188.3 110.5,191.3C110.5,193.9 113.3,193.8 114.3,192.9M119.1,191.3L122.7,191.3C122.8,188.5 118.9,188.3 119.1,191.3C119.1,193.8 121.9,193.7 122.9,192.9M124.5,188.9L125.9,193.7L127.3,190.9L128.7,193.6L130.1,188.9M135.2,189.5C133.7,188.5 131.5,188.9 131.7,191.5C131.9,194.2 134.7,194.1 135.2,191.9M135.2,189.5L135.2,195.3C135.1,196.9 132.7,196.9 132.1,195.5M140.3,189.5C137.7,188.3 136.7,190.5 139.1,191.1C141.3,191.7 140.2,194.5 137.5,193.3"/><path d="M9.2,196.3L9.6,205.6M12.3,202.7L15.9,202.7C16.0,199.9 12.1,199.7 12.3,202.7C12.3,204.9 15.1,205.5 16.1,204.3M20.7,202.7L24.3,202.7C24.4,199.9 20.5,199.7 20.7,202.7C20.7,205.4 23.5,204.9 24.5,204.3M28.4,200.3C25.8,200.3 25.8,205.5 28.4,205.3C31.0,204.9 31.0,200.3 28.4,200.3M31.9,197.3L32.3,205.6M30.5,200.3L34.1,200.3M39.5,201.3C35.7,199.3 35.5,205.8 39.3,204.5M44.3,200.9C41.7,199.7 40.7,201.9 43.1,202.5C45.3,203.1 44.2,205.9 41.5,204.7M55.4,200.9C52.8,199.7 51.8,201.9 54.2,202.5C56.4,203.1 55.3,205.8 52.6,204.7M56.9,197.3L56.9,205.5M55.6,200.3L59.2,200.3M64.4,200.9C61.8,199.7 60.8,201.9 63.2,202.5C65.4,203.1 64.3,205.8 61.6,204.7M69.6,201.3C65.8,199.3 65.6,205.8 69.4,204.5M71.4,208.3L71.5,200.3M71.5,201.9C72.9,200.1 75.3,200.7 75.3,202.9C75.3,204.9 72.9,205.5 71.5,203.9M77.2,202.7L80.8,202.7C80.9,199.9 77.0,199.7 77.2,202.7C77.2,205.2 80.0,205.1 81.0,204.3M86.1,200.3L86.1,204.1C86.1,205.2 89.1,205.2 89.9,203.9L89.9,200.3M89.9,203.9L89.9,205.5M91.9,205.0L91.9,200.3M91.9,202.3C92.7,200.1 94.7,199.9 95.3,201.1M101.2,196.3L101.6,205.6M107.0,200.3C104.4,200.3 104.4,205.4 107.0,205.3C109.6,205.1 109.6,200.3 107.0,200.3M110.8,200.3L112.7,205.1L114.6,200.3M115.8,196.3L115.8,205.5M115.8,202.3C116.6,199.9 119.4,199.7 119.6,202.3L119.6,205.3M121.7,200.3L121.3,205.1M132.9,201.3C129.1,199.3 128.9,205.8 132.7,204.5M136.6,200.3C134.0,200.3 134.0,205.4 136.6,205.2C139.2,205.2 139.2,200.3 136.6,200.3"/><path d="M9.1,211.6C6.5,211.6 6.5,216.5 9.1,216.3C11.7,216.5 11.7,211.6 9.1,211.6M12.6,214.0L16.2,214.0C16.3,211.2 12.4,211.0 12.6,214.0C12.6,216.4 15.4,216.7 16.4,215.6M18.1,211.6L18.1,215.4C18.1,216.6 21.1,216.4 21.9,215.2L21.9,211.6M21.9,215.2L21.9,216.9M23.9,216.8L23.9,211.6M23.9,213.6C24.7,211.4 26.7,211.2 27.3,212.4M27.9,211.6L28.4,217.0M31.6,211.6L31.4,216.9M38.7,216.6L38.4,211.6M38.4,213.6C39.2,211.4 41.2,211.2 41.8,212.4M43.1,219.6L43.3,211.6M43.3,213.2C44.7,211.4 47.1,212.0 47.1,214.2C47.1,216.2 44.7,216.8 43.3,215.2M48.6,216.3L48.5,211.6M48.5,213.6C49.3,211.4 51.3,211.2 51.9,212.4M53.5,211.6L53.4,216.8M56.5,207.6L56.3,216.6M56.3,213.6C57.1,211.2 59.9,211.0 60.1,213.6L60.1,216.7M65.0,212.2C62.4,211.0 61.4,213.2 63.8,213.8C66.0,214.4 64.9,216.9 62.2,216.0M70.3,216.9L70.4,211.6M70.4,213.6C71.2,211.4 73.2,211.2 73.8,212.4M74.7,207.6L74.8,216.7M74.8,213.6C75.6,211.2 78.4,211.0 78.6,213.6L78.6,216.6M80.3,216.5L80.4,211.6M80.4,213.6C81.2,211.4 83.2,211.2 83.8,212.4M91.2,211.6C88.6,211.6 88.6,216.4 91.2,216.6C93.8,216.3 93.8,211.6 91.2,211.6M94.7,211.6L94.7,215.4C94.7,216.9 97.7,216.3 98.5,215.2L98.5,211.6M98.5,215.2L98.5,216.7M103.5,207.6L103.6,216.6M103.6,213.0C102.1,211.4 99.9,211.6 100.1,214.2C100.1,216.8 102.7,216.7 103.6,215.2M105.3,214.0L108.9,214.0C109.0,211.2 105.1,211.0 105.3,214.0C105.3,216.7 108.1,216.3 109.1,215.6M116.1,211.6L118.0,216.3L119.9,211.6M124.6,212.6C120.8,210.6 120.6,217.1 124.4,215.8M126.5,214.0L130.1,214.0C130.2,211.2 126.3,211.0 126.5,214.0C126.5,216.4 129.3,216.6 130.3,215.6M131.8,216.5L131.8,211.6M131.8,213.6C132.6,211.4 134.6,211.2 135.2,212.4M136.3,214.0L139.9,214.0C140.0,211.2 136.1,211.0 136.3,214.0C136.3,216.3 139.1,216.3 140.1,215.6"/><path d="M7.4,223.0L7.3,228.1M12.1,223.0C9.5,223.0 9.5,227.7 12.1,228.2C14.7,228.3 14.7,223.0 12.1,223.0M19.1,223.6L19.2,227.9M19.2,224.4C17.7,222.8 15.5,223.0 15.7,225.6C15.7,228.0 18.3,227.9 19.2,226.6M21.1,228.1L21.0,223.0C21.3,222.0 23.6,222.0 23.8,224.6L23.8,227.7M23.8,224.4C24.1,222.0 26.4,222.0 26.6,224.6L26.6,227.8M30.3,223.0C27.7,223.0 27.7,227.8 30.3,228.2C32.9,227.8 32.9,223.0 30.3,223.0M38.1,220.0L38.6,228.3M36.8,223.0L40.4,223.0M42.1,219.0L42.3,227.9M42.3,225.0C43.1,222.6 45.9,222.4 46.1,225.0L46.1,227.8M50.0,223.0C47.4,223.0 47.4,227.7 50.0,227.9C52.6,228.1 52.6,223.0 50.0,223.0M55.5,223.0C52.9,223.0 52.9,228.2 55.5,227.8C58.1,227.9 58.1,223.0 55.5,223.0M59.2,225.4L62.8,225.4C62.9,222.6 59.0,222.4 59.2,225.4C59.2,227.7 62.0,228.2 63.0,227.0M72.9,224.0C69.1,222.0 68.9,228.5 72.7,227.2M74.5,225.4L78.1,225.4C78.2,222.6 74.3,222.4 74.5,225.4C74.5,228.2 77.3,227.9 78.3,227.0M79.9,223.0L80.0,228.0M91.4,224.0C87.6,222.0 87.4,228.5 91.2,227.2M92.7,228.0L92.7,223.0C93.1,222.0 96.3,222.0 96.5,224.8L96.5,228.2M102.3,223.0L102.6,228.1M106.0,225.4L109.6,225.4C109.7,222.6 105.8,222.4 106.0,225.4C106.0,228.2 108.8,227.7 109.8,227.0M111.4,223.0L111.4,226.8C111.4,227.8 114.4,228.0 115.2,226.6L115.2,223.0M115.2,226.6L115.2,227.7M118.7,223.0C116.1,223.0 116.1,228.1 118.7,228.2C121.3,227.9 121.3,223.0 118.7,223.0M122.2,219.0L122.1,227.8M130.3,223.0L130.3,228.3M133.5,225.4L137.1,225.4C137.2,222.6 133.3,222.4 133.5,225.4C133.5,228.2 136.3,228.3 137.3,227.0"/></g></svg>